<?xml version="1.0" encoding="utf-8"?>
<!-- Generator: Adobe Illustrator 19.2.1, SVG Export Plug-In . SVG Version: 6.00 Build 0)  -->
<svg version="1.2" baseProfile="tiny" id="Livello_1"
	 xmlns="http://www.w3.org/2000/svg" xmlns:xlink="http://www.w3.org/1999/xlink" x="0px" y="0px" width="140px" height="140px"
	 viewBox="0 0 140 140" xml:space="preserve">
<rect fill="#002344" width="140" height="140"/>
<g>
	<path fill="none" d="M52.4,58.7C52,58.9,52,59.2,52,59.2c0.5,0,1-0.4,1.1-0.6C53.1,58.5,52.8,58.5,52.4,58.7z"/>
	<path fill="none" d="M49.4,47.5c-0.1,0.4-0.4,1.1-0.5,1.5c-0.1,0.3-0.5,1-0.3,1.5c0.2,0.6,0.9-0.2,1.2-0.6c0.3-0.4,1.4-1.2,1.2-1.3
		c-0.2,0-0.7-0.3-1-0.5C49.7,47.9,49.4,47.5,49.4,47.5z"/>
	<path fill="none" d="M51.8,47.3c0.1-0.3-1.1-0.8-1.1-0.8C50.8,46.8,51.7,47.6,51.8,47.3z"/>
	<path fill="none" d="M70.3,60c0.1,0,1.2-1.1,1.4-1.3c0.2-0.2,0.3-0.4,0.3-0.4s0-1.8,0-2c0-0.2-0.3-0.4-0.3-0.4s-3.4,0-3.6,0
		c-0.2,0-0.3,0.4-0.3,0.4v2c0,0.2,1.8,1.8,1.8,1.8S70.1,60,70.3,60z"/>
	<path fill="none" d="M83.6,60.4c0,0-0.1,0-0.1,0c-0.1,0-0.2,0.1-0.2,0.2c0,0.1,0.1,0.2,0.2,0.2h0c0,0,0.1,0,0.1,0
		c0.2,0,0.3-0.1,0.3-0.2C83.9,60.5,83.8,60.4,83.6,60.4C83.6,60.4,83.6,60.4,83.6,60.4z"/>
	<path fill="none" d="M88,46.6c-0.2,0-0.4,0.2-0.6,0.4c-0.2,0.2-0.4,0.6-0.1,0.5c0.2-0.1,0.2-0.1,0.5,0c0.2,0.2,0.5,0,0.5,0
		s0.7,0.1,0-0.1C87.4,47.2,88.2,46.6,88,46.6z"/>
	<path fill="none" d="M99.9,34.2c-0.6-0.2-1.3-0.1-1.7-0.1c-0.4,0.1-0.6,0.9-0.8,1.3c-0.2,0.4,0.1,0.9,0.4,1.2
		c0.2,0.3,0,0.6,0.2,0.8c0.2,0.1,0.5,0.9,0.6,1.4c0.2,0.5,0.5,0.4,0.5,0.4s0.5-0.1,0.9,0.2c0.3,0.3,0.2,0.7,0.5,1.3
		c0.3,0.6,0.3,0.4,0.3,1.1c0,0.7,0.2,0.5-0.2,1c-0.4,0.5-0.1,0.3,0,0.8c0,0.1,0,0.1,0,0.2v0c0,0.3-0.1,0.2-0.3,0.4
		c-0.2,0.2,0.1,0.5,0.2,0.8c0.1,0.4,0,0.4-0.3,0.8c-0.3,0.5,0.2,1.2,0.5,2c0.4,0.8,0.8,0.9,1.2,1.1c0.5,0.1,0.3,0.5,0.8,1.1
		c0.5,0.5,1.1,0.4,1.5,1c0.4,0.6,0.1,1.2-0.2,1.5c0,0-0.1,0.1-0.1,0.1h0c-0.3,0.4-0.5,1.3-0.7,1.7c-0.2,0.5-2,0.6-2,0.6
		c0.1,0.2,0.4,0.5,0.7,0.5c0.3,0,0.9,0.4,1,0.6c0.1,0.2,0.3,0.4,0.6,0.4c0.3,0,0.3-0.4,0.6-0.8s0.5-0.6,0.7-0.8
		c0.2-0.2,0.2-0.3,0.2-0.3s-0.1-0.6-0.1-1.1c0-0.2,0.1-0.5,0.3-0.9h0c0,0,0,0,0,0c0,0,0-0.1,0-0.1h0c0.2-0.5,0.5-1,0.6-1.1
		c0.2-0.3,0-0.5-0.2-0.7c-0.2-0.2-0.1-0.6,0.2-0.8c0.3-0.2-0.2-0.4-0.9-0.6c-0.8-0.3-1.3-1.7-1.6-2.2c-0.3-0.5,0.3-1,0.5-0.9
		c0.2,0.1,0.4-0.3,0.4-0.3s0.1-0.9,0.2-1.3c0-0.3,0-0.5,0.1-0.7h0c0-0.1,0.1-0.1,0.2-0.2c0.3-0.2,0.1-0.5,0.3-1.1
		c0.3-0.6,0.2-0.9,0.1-1.9c-0.2-0.9-1.8-1.8-2.3-2.2c-0.5-0.4-1.3-2-1.6-2.9C101,34.6,100.5,34.4,99.9,34.2z"/>
	<path fill="none" d="M84.6,59.9c-0.1,0-0.1,0-0.2,0c-0.1,0-0.1,0.1-0.1,0.1c0,0,0,0,0,0c0,0.1,0.1,0.2,0.3,0.2
		c0.2,0,0.3-0.1,0.3-0.2c0,0,0,0,0,0c0-0.1-0.1-0.1-0.2-0.1C84.7,59.9,84.7,59.9,84.6,59.9z"/>
	<path fill="none" d="M83.1,53.8c0.9-0.2,3.1-0.8,3.6-1c0.2-0.1,0.5-0.2,0.8-0.3c0.4-0.2,0.7-0.4,0.8-0.6c0.1-0.3-0.2-0.6-0.7-1
		c-0.5-0.4-1.3-1-1.5-1.2c-0.2-0.2-0.5-0.5-0.5-0.5c0.1,0.6-0.8,1.3-2.1,2.2c-0.7,0.6-0.9,0.8-1,1c0,0,0,0.1,0,0.1c0,0,0,0,0,0h0
		c0,0,0,0,0,0.1c-0.2,0.3-2.9,4-3.2,4.5c-0.3,0.4-0.6,0.4-0.9,0.3c-0.3,0-1.3-0.6-2.3-1.1c-1-0.5-1.4-0.5-2.1-0.5
		c-0.7,0-0.5,0.5-0.5,1c0,0.5,0.3,0.3,0.5,0.3s0.6,0.2,0.7,0.5c0.1,0.3,0,0.7-0.1,0.9c-0.1,0.2-2.5,2-3.3,2.6
		c-0.1,0.1-0.2,0.2-0.3,0.2c-0.5,0.3-0.5,0.2-1.1,0.2c-0.6,0-0.8-0.1-1-0.2h0c0,0,0,0,0,0c-0.2-0.1-3.4-2.5-3.6-2.6
		c-0.2-0.2-0.2-0.8-0.1-1.1c0-0.3,0.5-0.3,0.9-0.3c0.5-0.1,0.4-0.8,0.3-1.1c-0.1-0.4-0.4-0.4-1.1-0.5c-0.7-0.1-2.6-0.7-4.4-1.4
		c-0.9-0.3-1.8-0.9-2.7-1.5h0c0,0-0.1,0-0.1-0.1c0,0-0.1,0-0.1-0.1h0c-0.8-0.5-1.7-1.2-2.2-1.6c-1.1-0.9-2.8-2.6-2.8-2.6
		s-0.2,0.5-0.5,0.8c-0.3,0.3-0.8,0.6-1.2,0.8c-0.4,0.2-0.5,0.6-0.6,0.9c-0.1,0.3,0.4,0.8,0.8,0.8c0.4,0.1,1.2,0.3,2,0.6
		c0.1,0,0.3,0.1,0.5,0.2h0c1,0.4,3,1.4,4,2c1.2,0.7,1,1.3,1.1,1.8c0,0.6-0.3,0.5-0.7,0.8c-0.4,0.3-0.7,0.6-0.7,1.7
		c0,1.1-0.3,1.7-0.6,2.1c-0.1,0.2-0.1,0.3,0,0.4h0c0.1,0.1,0.4,0.2,0.9,0.4c1,0.4,3.4,1,4.7,1.2c1.3,0.2,4.6,0.8,7,0.8
		c2.3,0,3.8-0.2,5.8-0.5c2-0.3,5.2-1.3,5.2-1.4c0-0.1-0.1-0.3-0.1-0.5h0c0-0.2-0.1-0.3-0.1-0.5c0-0.4,0.3-1.1,0.5-1.4
		c0.1-0.3,0.3-0.8,0.1-1.2c-0.2-0.3-0.7-1.5-0.8-1.8c-0.1-0.3,0.7-1.1,0.9-1.4C81.5,54.7,82.2,54,83.1,53.8z"/>
	<path fill="none" d="M57.4,55.8c0-0.6-1.2-1.1-1.5-1.2c-0.3-0.1-3.5-1.3-5.3-2.1h0c0,0,0,0-0.1,0c0,0,0,0,0,0h0
		c-0.1,0-0.2-0.1-0.3-0.1c-1.7-0.7-2.1-1.1-2.8-2.2c-0.6-1-0.4-1.6-0.4-1.9c0-0.3-0.1-0.5-0.4-0.3c-0.3,0.2-0.4,1.6-0.5,2.1
		c-0.1,0.6-0.4,1.3-0.5,1.9c0,0.1-0.1,0.2-0.2,0.3l0,0c0,0,0,0,0,0c-0.1,0.1-0.2,0.2-0.3,0.3c-0.2,0.2-0.3,0.3-0.4,0.4
		c-0.3,0.3,0.4,0.8,0.4,0.8c-0.1-0.2,0.4-1,0.5-1.2c0,0,0-0.1,0-0.1c0.2-0.2,0.8-0.4,0.7-0.5c-0.1-0.1-0.2-0.6-0.2-0.8
		c0-0.2,0.2-0.2,0.3-0.5c0.1-0.3,0.1-0.4,0.3-0.6c0.2-0.2,0.5,0.7,0.7,0.9c0.3,0.2,1,0.9,1,1.2c0,0.1-0.1,0.2-0.2,0.2h0
		c-0.2,0.1-0.4,0.2-0.6,0.3c-0.3,0.1-0.7-0.2-0.7-0.1c0,0.1,0.3,0.4,0.3,0.6s-0.4,0.2-0.4,0.2s0,0.1-0.1,0.2
		c-0.1,0.1-0.3,0.2-0.4,0.2c-0.1,0,0,0.3-0.4,0.2c-0.3,0-0.7-0.3-0.7-0.1c0,0.1,1,0.9,2.1,1.5c1.1,0.6,5.6,2.1,5.9,2.2
		c0.4,0.1,0.4,0.1,0.4,0.1s-0.1-0.2-0.3-0.3c-0.2-0.1-0.3-0.4-0.2-0.6c0.1-0.2,0.5-0.1,0.7-0.3c0.2-0.2,0-0.8,0-0.8s0.3-0.1,0.3-0.2
		c0-0.1,0-0.6,0-0.6s0.8-0.1,1-0.3c0.1-0.2,0.3,0,0.8,0.4c0.4,0.4,0.3,0.8,0.2,1c-0.1,0.2-0.3,0.4-0.3,0.4s0.1,0.2-0.1,0.3
		c-0.1,0.1-0.1,0.4-0.1,0.8c0,0.4-0.1,0.6-0.3,0.7c-0.2,0.1-0.8-0.3-0.8-0.3s0.4,0.6,0.8,0.9c0.4,0.3,0.2,0.6,0,0.9
		c-0.2,0.3-0.3,0.5,0.2,0.4c0.5-0.1,0.7-0.8,0.6-1c-0.1-0.3,0.1-1.4,0.2-1.8C56.7,57.2,57.4,56.4,57.4,55.8z"/>
	<path fill="none" d="M50.9,40.2c-0.2-0.3-0.5-2.1-0.9-2.5c-0.4-0.4-0.1,0.9,0.3,2.6c0.2,0.8,0.7,2,1.5,3.3v0
		c0.9,1.5,2.2,3.3,3.5,4.6c1.9,2,4.1,3.3,6.1,4.2c0.5,0.2,1,0.5,1.6,0.7c2.5,1,5.7,1.2,6.9,1.2c1.2,0,2.8-0.1,3.3-0.2
		c0.5-0.2,1.8-0.2,2.4-0.1c0.6,0.1,2.4,1.3,3.2,1.6c0.8,0.3,1-0.1,1-0.1s1-1.3,1.3-1.9c0.3-0.6,0-0.8,0-0.8s-0.5-0.2-1-0.5h0
		c0,0-0.1,0-0.1,0c0,0,0,0,0,0c-1.1-0.5-3.5-1.7-4.3-1.9c-0.5-0.2-1.5-0.2-1.8-0.1c-0.2,0.1-1.8,0.4-4.6,0.4c-2.8,0-3.4,0.1-8.2-2.5
		c-2-1.1-3.7-2.8-4.9-4.5h0c0,0,0,0,0-0.1c0,0,0,0,0-0.1h0c-1.6-2.2-2.5-4.3-2.5-4.3c0.3,0.8-0.6,1.6-1.3,1.8
		C51.5,41.3,51.1,40.6,50.9,40.2z M70,51.5c0.7,0,1.3,0.6,1.3,1.3c0,0.7-0.6,1.3-1.3,1.3s-1.3-0.6-1.3-1.3
		C68.7,52.1,69.3,51.5,70,51.5z M62.4,49.9c0.7,0,1.3,0.6,1.3,1.3c0,0.7-0.6,1.3-1.3,1.3c-0.7,0-1.3-0.6-1.3-1.3
		C61.1,50.5,61.7,49.9,62.4,49.9z"/>
	<circle fill="none" cx="70" cy="52.8" r="0.5"/>
	<circle fill="none" cx="62.4" cy="51.2" r="0.5"/>
	<ellipse fill="none" cx="101.8" cy="56.2" rx="0.4" ry="0.3"/>
	<path fill="none" d="M68.2,49c-0.3,0.2,0.2,0.6,0.6,0.7c0.4,0.1,2.3,0.1,2.9-0.2c0.6-0.3,0.3-0.5,0-0.7C71.3,48.6,68.2,49,68.2,49z
		"/>
	<path fill="none" d="M82,58.5c0.4,0,0.6-0.5,0.6-0.5s-0.3-0.2-0.1-0.4c0.2-0.1,0-0.4-0.2-0.4c-0.2,0-0.3-0.4,0-0.6
		c0.2-0.2-0.2-0.3-0.5-0.4c-0.3,0-0.4,0-0.2,0.5C81.8,57.1,82,58.5,82,58.5z"/>
	<path fill="none" d="M92.5,51.1c0.2,0.1,0.3,0,0.3,0s-0.1-0.5-0.2-1.3C92.5,49,92.2,48,92.2,48s0,0.4,0,0.8s-0.4,1.8-0.4,1.8
		s0.2,0,0.4,0.1C92.3,50.8,92.2,51,92.5,51.1z"/>
	<path fill="none" d="M97.3,40.7c-0.8,0-1.8,0-2.2,0.3c-0.4,0.2-0.9,0.6-0.8,1c0,0.4,0.4,0.6,0.5,1c0,0.4-0.1,0.2-0.1,0.5
		c0,0.1,0,0.1,0,0.2h0l0,0c0.1,0.2,0.2,0.3,0.1,0.4c-0.1,0.1-0.1,0.3,0,0.4c0.1,0.1,0.2,0.3,0,0.4c-0.2,0.1,0,0.3,0,0.5
		c0.1,0.2,0.1,0.8,0.1,0.8s0,0.4-0.2,0.3c-0.2,0-0.3-0.1-0.3,0S94,47.4,94,47.4s-0.2,0.2-0.4,0c-0.2-0.2-0.3-0.3-0.3-0.3
		s0,1.6,0.1,1.9c0.2,0.3,0.2,0.7,0.4,0.4c0.2-0.3,0.6-0.9,1.3-1c0.6,0,1.4,0.1,1.4-0.4c0-0.5-0.3-1.3-0.3-1.5c0-0.3-0.8-0.6-0.6-0.9
		c0.1-0.3,0.2-0.8,0.9-0.9c0.7-0.1,1.7-0.1,1.7-0.1s0.5-0.1,0.5-0.6c0-0.1,0-0.2,0-0.3c0-0.6-0.2-1.6-0.4-2.1
		C98,41.1,98.1,40.7,97.3,40.7z"/>
	<path fill="none" d="M86.8,48.1c0,0-0.5,0.3-0.1,0.7c0.3,0.3,1.6,1.1,2,1.6c0.4,0.5,0.6,1.2,1,1.1c0.4-0.1,0.7-0.2,0.6-0.8
		c-0.1-0.6-0.5-1.4-0.5-1.9s-0.1-0.7-0.1-0.7s-0.8,0.4-1.3,0.5c-0.5,0.1-0.8,0.2-1.1,0C86.9,48.4,86.9,48.3,86.8,48.1z"/>
	<path fill="none" d="M86.5,59.4C86.5,59.4,86.5,59.4,86.5,59.4c0,0.2,0,0.2,0.1,0.2c0,0,0,0,0.1,0c0.1,0,0.2-0.1,0.2-0.2
		c0-0.1-0.1-0.2-0.2-0.2C86.6,59.2,86.5,59.3,86.5,59.4z"/>
	<path fill="none" d="M108.1,42.6c0.5-0.2,0.8-1.5,0.9-2c0.1-0.5-0.3-3-0.5-3.9c-0.2-0.9-0.5-2.9-0.8-2.9c-0.2-0.1-0.1,0.8-0.1,0.8
		l0.1,0.9c0.1,0.9,0.3,1.9,0.5,2.9c0.2,1,0,2.3-0.2,2.9c-0.2,0.6-0.9,1-1.3,1.1c-0.4,0.1-0.4,0.4-0.2,0.5
		C106.9,43.1,107.6,42.8,108.1,42.6z"/>
	<ellipse fill="none" cx="38" cy="56" rx="0.5" ry="0.2"/>
	<path fill="none" d="M108.2,27.1c0.1-0.1,0.2-0.5,0.2-0.8c0-0.3,0.9-0.6,1.2-0.8c0.3-0.2,0.6,0.3,0.7,0.5c0.1,0.2,0.3,0.4,0.4,0.3
		s-0.1-0.5-0.2-0.9c-0.2-0.4-1-0.3-1.5,0c-0.6,0.3-1.1,1.8-1.1,1.8S108.2,27.2,108.2,27.1z"/>
	<path fill="none" d="M36.8,65.7c0.3,0.3,3.9,0.2,3.9,0.2C40.5,65.7,36.5,65.4,36.8,65.7z"/>
	<path fill="none" d="M91,65.7c0,0,4.2,1.2,5.4,0.9C97.6,66.4,91.3,65.7,91,65.7z"/>
	<path fill="none" d="M27.4,89c0-1.2-0.2-2.2-0.6-3c-0.4-0.8-1.3-1.2-2.5-1.2c-0.7,0-1.1,0.1-1.4,0.3c-0.3,0.2-0.4,0.6-0.4,1.2v7
		c1.9,0,3.2-0.3,3.9-0.9C27,91.8,27.4,90.6,27.4,89z"/>
	<path fill="none" d="M24.2,104c1.5,0,2.5-0.4,3.1-1.2c0.6-0.8,0.9-1.9,0.9-3.4c0-2.2-0.7-3.7-2-4.4c-0.8-0.4-2-0.7-3.7-0.6v7.8
		c0,0.5,0.1,1,0.2,1.2C23,103.8,23.5,104,24.2,104z"/>
	<path fill="none" d="M110.1,28.7c0.2-0.1,0.5,0.5,0.4,0.8c-0.1,0.3-0.1,1,0,1c0.1,0,0.2-1,0.3-1.2c0-0.3,0.2-0.3,0.5-0.4
		c0.2-0.1,0.1-0.3,0-0.6c-0.1-0.3-0.3-0.3-0.7-0.2C110.2,28.3,110.1,28.7,110.1,28.7z"/>
	<path fill="none" d="M100.3,48.8c-0.1-0.2-0.8-1.3-1.1-1.8c-0.3-0.5-0.4-1.1-0.8-1.4c-0.4-0.2-0.6,0.1-1.1,0.6
		c-0.5,0.5,0,1.6,0.1,2.3c0.1,0.7-0.8,0.8-1.3,0.8s-0.9,0-1.4,0.4c-0.5,0.4-0.9,0.2-1,0.1c-0.1-0.1-0.1,0.1-0.2,0.4
		c0,0.3,0.4,1.4,0.7,1.4c0.3,0,0.8,0,1.4,0.4c0.1,0.1,0.2,0.2,0.3,0.4c0.1,0.5-0.3,1.4-1,2.6c-1,1.6-5.9,3.7-5.9,3.7
		c0.9,0.1,0.9,0.1,1.7-0.2c0.8-0.3,3.2-0.7,5.2-0.9c2-0.1,4.5,0,4.5,0s-0.9-0.2-1.4-0.4c-0.5-0.2-0.7-0.7-0.8-1.1
		c-0.1-0.4,0-1.4,0.2-1.8c0.2-0.4,1-0.8,1.3-0.8c0.3,0,1.7,0.2,2.2,0.2c0.5,0,0.6-0.2,0.7-0.5c0-0.1,0.1-0.4,0.3-0.8h0
		c0.2-0.5,0.4-1.2,0.4-1.3c0-0.3-0.6-0.6-1.3-0.4c-0.6,0.1-1.2-0.1-1.5-0.2c-0.3-0.1-0.5-0.8-0.3-1C100.4,49.4,100.4,49,100.3,48.8z
		"/>
	<path fill="none" d="M54.4,36.8c-0.1-0.1-0.2-0.2-0.4,0c-0.2,0.2-0.6,0.2-0.9,0.3c-0.3,0.1-1.2-0.3-1.4-0.4
		c-0.2-0.1-0.1,0.2-0.1,0.2s0.3,0.2,0.5,0.5c0.2,0.2,1.1,1.8,1.1,1.8c0-0.3-0.1-0.8-0.2-1.2c0-0.4,0.3-0.5,0.3-0.5s1,0,1.1,0
		c0.2,0,0.6-0.2,0.7-0.3c0.1-0.1,0.5,0.3,0.5,0.5c0.1,0.2,0.9,2.1,1,2.7c0.1,0.5-0.4,0.6-0.7,0.8c-0.4,0.2-0.1,0.6,0,0.9
		c0.1,0.2,0.7,1,1.3,1.8c0.3,0.4,0.8,1,1.1,1.3c0.9,1,2.1,1.8,3.4,2.5c1.7,0.9,3.9,1.6,4.1,1.7c0.2,0.1,0.4-0.2,0.5-0.4
		s0.5-0.4,0.7-0.4c0.2-0.1,0.5,0.1,0.8,0.1c0.3,0,2.9,0.1,3.2,0c0.2-0.1,2-0.2,2.5-0.2c0.5,0,0.8,0.2,1,0.4c0.2,0.2,0.3,0.1,0.7,0
		c0.3,0,1.8-0.7,3.2-1.6c1.3-0.8,2.8-2.1,3.9-3.5h0c0.1-0.1,0.2-0.2,0.3-0.4c1.3-1.6,2.5-4.4,2.8-5.1c0.2-0.7,0.5-0.9,0.7-0.9
		c0.2-0.1,0.6,0.2,0.6,0.6c0,0.4-0.7,2.2-1.3,3.4c-0.3,0.7-0.9,1.5-1.5,2.4h0c-0.7,0.9-1.5,1.8-2.5,2.6c-1.9,1.7-4,2.8-4.1,2.9
		c-0.2,0.1-0.2,0.3-0.1,0.4c0.1,0.1,2.2,1.2,2.8,1.4c0.6,0.3,0.7,0.2,0.9,0.1c0.2-0.1,1.2-0.8,1.5-1.1c0.3-0.2,2.2-1.8,2.4-1.9
		c0.2-0.2,0.4,0.2,0.5,0.4s0.3,0.4,0.3,0.4v-0.6c0-0.4,0.4-1.4,0.6-1.8c0.2-0.4,1.4-0.9,1.6-1c0.2-0.1-0.1-0.4-0.3-0.5
		c-0.2-0.1,0.2-0.6,0.6-1.3v0c0-0.1,0.1-0.1,0.1-0.2c0.5-0.8,1.2-2.5,1.6-3.6c0.5-1.1,0.8-3.5,0.8-3.5s-0.5,0-0.8,0.1
		c-0.3,0.2-0.9,0-1.2,0c-0.3,0-0.8,0.2-1.1,0.3c-0.3,0.1-1.1,0-1.2-0.2c-0.2-0.2-0.4-0.2-0.4,0c0,0.1-0.2,0.2-0.7,0
		c-0.5-0.2-0.4-1.4-0.3-1.6c0.1-0.3,0-0.6-0.1-0.8c-0.1-0.2,0-0.5,0.1-0.9c0-0.3,0.4-0.7,0.6-0.9s1-0.6,1.1-0.7
		c0.2-0.1,0-0.2-0.2-0.2c-0.2,0-0.4-0.4-0.5-1.2c-0.2-0.9-0.7-3-2.3-5.7c-1.6-2.7-4.8-4.9-6.1-5.5c-1.6-0.8-4.3-1.7-7.5-1.7
		c-3,0-6,1.1-8.8,2.7c-2.8,1.6-4.7,4.4-5.7,6.3c-0.9,1.7-1.5,4.9-1.7,5.1c-0.2,0.2,0,0.4,0.2,0.5c0.2,0.1,0.9,0.5,1.3,0.9
		c0.4,0.4,0.2,1.4,0,1.6c-0.1,0.2,0,0.4,0,0.8s-0.2,1.3-0.3,1.4C55,37,54.5,36.9,54.4,36.8z M61.4,22.4c0.4-0.8,1.1-1.6,1.7-1.9
		c0.5-0.3,1.5-0.6,1.9-0.3c0.5,0.3,1.6,0.9,2.4,1.2c0.6,0.2,1.8,0.3,3,0.1c1.1-0.3,2.6-0.8,2.6-0.8s-2.8,1.8-3.2,2
		c-0.3,0.2-1.8,1.4-2,1.6c-0.1,0.1-0.2,0.2-0.2,0.2s-1.4-0.9-2-1.1c-0.6-0.2-1.2-0.4-1.7-0.3c-0.3,0-0.8,0.3-1.1,0.8
		c-0.3,0.5-0.4,1.1-0.4,1.7c0,0.6,0.2,2.1,0.4,2.5c0,0-1.6-1.3-1.7-3C61,23.9,61.1,23.1,61.4,22.4z M67.4,34c0,0.8,0.2,4,0.2,4.3
		c0,0.3-0.1,0.6-0.2,0.9c-0.2,0.2-1.2,1.7-1.8,2c-0.6,0.3-1.3,0.5-1.2-0.1c0.1-0.6,0.7-3.2,0.7-4.5c0-1.3-0.3-4.2-0.4-5.4
		c-0.1-1.2-0.3-2.8-0.5-3.5c0,0,0.9-0.6,1.5-1.2c0.3-0.4,0.9-1.3,1.2-1.6c0.2-0.2,0.6-0.6,0.8-0.3c0.2,0.2,0.3,0.3,0,1.3
		c-0.3,1-0.4,2.5-0.4,3.5C67.2,30.3,67.4,33.3,67.4,34z M61.2,45.3c0.2-0.5,0.6-1.4,1.3-2c0.7-0.6,1.5-1.2,2.7-1.4
		c1.2-0.2,2.1-0.2,3.5,0c1.4,0.2,2.6,0.6,2.8,0.7c0,0,0.4-9.7,0.4-9.9c0-0.2,0.3-0.9,0.6-0.9c0.3,0,0.5,0.2,0.5,0.4
		c0,0.2,0.3,1,0.5,1c0.1,0,1.9-0.4,2.8-1.4c0.9-1.1,1.9-2.5,1.9-4.3c0-1.8-1.1-2.5-1.2-2.7c-0.1-0.1-1.2-0.9-2.3-1
		c-1.1-0.1-2.9-0.1-3.2,0c-0.2,0-0.2,0-0.3,0l0.1,14c0,0,0,0.6-0.2,0.9c-0.2,0.3-2.5,2.2-2.8,2.3s-0.9,0.3-0.9-0.1
		c0.1-0.4,0.3-0.5,0.5-0.6c0.2-0.1,0.6,0.2,0.6-1.6C68.3,37,68,25.7,68,25.7s0-0.6,0.7-1.3c0.7-0.7,2.2-2,3.1-2.2
		c0.9-0.2,2.2-0.1,3.3,0.1c1.2,0.3,2.9,1,3.7,2c0.6,0.8,1.2,1.7,1.2,3c0,1.2-0.3,2.4-1.3,3.4c-1,1-1.7,1.4-1.7,1.4l-0.2,0.1
		c0,0,0.6,0.2,1,0.3c0.3,0.1,1.4,0.4,2.2,1.1c1,0.8,1.7,1.8,1.8,3.3c0.1,1.3-0.1,2.6-0.9,3.6l-0.1,0.1c-1.1,1.3-1.4,1.5-1.4,1.5h0.5
		c0,0,0.5,0,0.8,0.4c0.3,0.4,0.3,0.6,0.1,0.6s-3,0.4-4,0.6c-1,0.3-2.8,0.9-3.4,1.3c-0.6,0.4-1.4,0.9-1.6,1c-0.2,0.1-0.5,0.2-0.7,0.1
		c-0.2-0.1-2-0.9-2.5-1.1c-0.4-0.2-2-0.9-3.1-0.9c-1.1,0-2.1,0.2-2.7,0.6c-0.6,0.3-1,1-1.3,1.4c-0.2,0.3-0.5,0.6-0.5,0.3
		C61,46.1,61,45.8,61.2,45.3z"/>
	<ellipse fill="none" cx="86.8" cy="33.7" rx="0.1" ry="0.2"/>
	<path fill="none" d="M72.9,42.5c0.9,0.1,2.4-0.1,3.5-0.4c1.2-0.3,1.7-0.8,2.5-2.1l0.1-0.2c0.6-1.1,0.5-2.6,0.2-3.7
		c-0.3-1.1-1.7-1.8-2.4-2.1c-1.1-0.4-2.2-0.5-3-0.3c-0.9,0.2-1,1.1-1,1.3c0,0.2,0,0-0.1,2.7c-0.1,1.2-0.1,2.3-0.1,3.1
		C72.7,41.9,72.9,42.5,72.9,42.5z"/>
	<path fill="none" d="M94,54.6c0.1-0.1-0.3-0.1-0.5-0.3c-0.2-0.1,0.2-0.6,0.4-1c0.2-0.4,0.5,0,0.7-0.1c0.2-0.1,0.1-0.4-0.1-0.5
		c-0.2-0.1-0.5-0.1-0.8-0.3c0,0,0,0,0,0v0c-0.2-0.1-0.2-0.1-0.3,0c0,0-0.1,0.1-0.1,0.1C93,52.7,93,52.8,93,53c0,0.2-0.1,0.4-0.4,0.4
		c-0.3,0,0-0.4,0-0.7c0-0.1,0-0.2,0-0.2c0-0.1-0.1-0.2-0.1-0.2s-0.2,0-0.6,0s-0.7-0.1-0.9-0.3c-0.1-0.1-0.2-0.3-0.4-0.1
		c-0.1,0.1-0.5,0.4-1,0.6l0,0c0,0,0,0-0.1,0c0,0-0.1,0-0.1,0h0c-0.6,0.3-1.3,0.7-2,0.9c-1.3,0.5-3.7,1.2-4,1.3
		c-0.3,0.1-0.3,0.5-0.1,0.4c0.2,0,0.3-0.2,0.6-0.4c0.3-0.1,0.7,0.2,0.5,0.4c-0.2,0.2-1,0.2-1,0.2l-0.9,0.7c0,0,0.4,0,0.7-0.2
		c0.3-0.1,0.5-0.2,0.8-0.2c0.3,0,0.2,0.4,0,0.6c-0.2,0.2-0.3,0.2-0.1,0.4c0.2,0.2,0,0.4-0.3,0.6c-0.3,0.2-0.3,0.3-0.1,0.4
		c0.2,0.1,0.1,0.4,0,0.6c-0.1,0.2-0.9,0.7-1.2,0.7s-0.1,0.1-0.5,0.9c-0.3,0.8-0.1,1.1,0.1,1.3c0,0,0,0,0.1,0l0.2,0
		c0.1-0.1,0.1-0.2,0.1-0.5c0-0.4,0.3-0.9,0.7-1.4s2.4-0.8,3.1-0.9c0.7-0.1,2.8-0.6,4.6-1.4C92.6,56.3,93.9,54.8,94,54.6z"/>
	<path fill="none" d="M68.6,65.9c0-0.1,0-0.2-0.1-0.2c0-0.1-0.1-0.1-0.2-0.1c-0.1,0-0.2,0-0.2,0.1c0,0.1-0.1,0.2-0.1,0.4
		c0,0.3,0,0.5,0.1,0.7c0.1,0.2,0.1,0.2,0.3,0.2c0,0,0.1,0,0.1,0c0,0,0.1,0,0.1,0c0,0,0-0.1,0-0.1c0-0.1,0-0.2,0-0.3
		c0-0.1,0-0.3,0-0.4C68.6,66.1,68.6,66,68.6,65.9z"/>
	<path fill="none" d="M74.9,66.1c0-0.1,0-0.3-0.1-0.4c0-0.1,0-0.2-0.1-0.3c0-0.1-0.1-0.2-0.1-0.2c-0.1-0.1-0.1-0.1-0.2-0.1
		c-0.1,0-0.2,0.1-0.2,0.2c0,0.1,0,0.2,0,0.4c0,0.3,0.1,0.5,0.2,0.7c0.1,0.1,0.2,0.2,0.3,0.2c0,0,0.1,0,0.1,0c0,0,0.1,0,0.1,0
		c0,0,0-0.1,0-0.1C74.9,66.3,74.9,66.2,74.9,66.1z"/>
	<path fill="none" d="M89.9,59.8c-1.2,0.4-2.6,0.9-4.1,1.4v0c-2.1,0.7-4.3,1.5-6.2,2.1c-3.2,1-6.7,1.1-9.5,1.1c-2.7,0-3.1,0-5.8-0.3
		c-2.7-0.2-5.9-1.3-7.2-1.8c-0.9-0.3-2-0.8-3-1.2h0c-0.4-0.2-0.8-0.3-1.1-0.5c-1-0.4-3.7-1.3-5.5-1.7c-1.9-0.4-5.8-0.7-6.5-0.7
		c-0.6,0-3.4,0.1-3.9,0.2c-0.4,0.1-1.7,0.4-2.5,0.4c-0.8,0.1-2,0.4-2.4,0.6c-0.4,0.2-0.7,0.5-0.5,0.7c0.2,0.2,0.4,0.3,0.5,0.9
		c0,0,0,0,0,0c0.1,0.6-0.3,1.2-1.1,2.3c-0.8,1.1-0.5,0.5,0,1.2c0.5,0.7,1.4,0.7,1.4,0.7c-0.1-0.1-0.1-0.3-0.1-0.4
		c0-0.2,0.1-0.5,0.7-0.7c0.5-0.3,2.2-0.4,2.5-0.4s0.4-0.3,2.7-0.5c2.3-0.2,3.5-0.2,6.6,0.1c3.1,0.3,4,0.9,6.1,1.7s6.2,2.2,10.2,3.2
		c4,0.9,6.7,0.8,9.3,0.8c2.6,0,4.5-0.3,7.8-0.8c3.3-0.5,6-1.6,7.4-2c1.4-0.4,4.4-1.6,7.2-2.1c2.8-0.4,2.7-0.5,6-0.5
		c3.4,0,4.2,0.4,5.4,0.6c1.2,0.2,1.4,0.7,1.4,1c0.1,0.3-0.7,0.5-0.5,0.5c0.2,0,1.1-0.3,1.4-0.5c0.3-0.2,0.4-1,0.2-1.3
		c-0.2-0.3-0.5-0.9-0.7-1.2c-0.1-0.2-0.1-1.1,0-1.6h0c0,0,0,0,0-0.1c0,0,0,0,0,0c0,0,0-0.1,0-0.1c0-0.3,0.3-0.3,0.4-0.7
		c0.1-0.4-0.7-0.5-0.9-0.5c-0.1,0.1,0.1,0.2,0.2,0.4c0.1,0.2-0.3,0.2-0.3,0.4s0,0.2-0.2,0.4s-0.6-0.2-1.1-0.3
		c-0.4-0.1-0.8-0.2-1.1-0.2c-0.3,0-0.4-0.4-0.2-0.4c0.2,0,0.4-0.2,0.3-0.3c-0.2-0.1,0-0.5,0-0.5s0.5,0.1,0-0.3c-0.5-0.4-4-0.5-5-0.5
		C97.1,58.6,92.7,58.9,89.9,59.8z M32.6,59.9c0,0,0.6-0.5,1.1-0.5c0.4,0,0.5,0,0.8-0.1c0.2-0.1,0.7-0.3,0.6,0c0,0.3,0,0.3-0.4,0.4
		s-0.7,0.2-1,0.3c-0.3,0.1-0.4,0.2-0.7,0.2C32.8,60.2,32.5,60,32.6,59.9z M34,61.1c0.3,0,0.5,0,0.5,0.1c0,0-0.3,0.3-0.5,0.4
		c-0.2,0.1-0.6,0.3-0.8,0.3c-0.2-0.1-0.5-0.2-0.4-0.3c0.1-0.2,0.3-0.2,0.2-0.4c-0.1-0.2-0.3-0.4,0-0.5c0.3-0.1,1-0.5,1.3-0.5
		s0.8,0,0.6,0.2c-0.2,0.2-0.6,0.3-0.9,0.4c-0.3,0.1-0.5,0.2-0.5,0.3C33.4,61.2,33.7,61.2,34,61.1z M34.5,62.1c0,0.2,0,0.3-0.3,0.4
		c-0.3,0.1-0.7,0.3-1,0.3c-0.3,0-0.4,0.1-0.6-0.2c0,0,0.3-0.5,0.7-0.6C33.6,62,34.5,61.9,34.5,62.1z M35.6,63
		c-0.3,0.2-1.5,0.4-1.8,0.5c-0.3,0.1-1.1,0.4-1.3,0.4c-0.2,0-0.3-0.4-0.3-0.4s1.6-0.8,2.4-0.8C35.5,62.7,35.9,62.8,35.6,63z
		 M36.5,59.3c-0.2,0.2-0.4,0.4-0.6,0.3c-0.2-0.1-0.3-0.1-0.3-0.3c0-0.2,0.4-0.4,0.4-0.4S36.8,59.1,36.5,59.3z M65.8,68.1l-1.5-0.2
		l0-0.1c0.2,0,0.3,0,0.4,0c0.1-0.1,0.1-0.2,0.1-0.3l0.2-1.6c0-0.1,0-0.2,0-0.2c0,0-0.1-0.1-0.1-0.1c0,0-0.1,0-0.2,0c0,0-0.1,0-0.2,0
		l0-0.1l1.1-0.3l0.1,0l-0.3,2.3c0,0.1,0,0.3,0,0.3C65.5,67.9,65.7,68,65.8,68.1L65.8,68.1z M68.7,67.9c-0.3,0.3-0.8,0.4-1.2,0.4
		l0-0.1c0.2,0,0.4-0.1,0.6-0.2c0.3-0.2,0.5-0.5,0.5-0.8l0,0c-0.1,0-0.1,0-0.1,0c-0.1,0-0.1,0-0.2,0c-0.2,0-0.4-0.1-0.5-0.2
		c-0.1-0.2-0.2-0.4-0.2-0.6c0-0.3,0.1-0.5,0.3-0.7c0.2-0.2,0.4-0.3,0.6-0.3c0.3,0,0.5,0.1,0.7,0.3s0.3,0.5,0.3,0.9
		C69.3,67.1,69.1,67.6,68.7,67.9z M72.2,67.9c-0.2,0.2-0.5,0.4-0.9,0.4c-0.2,0-0.3,0-0.4-0.1c-0.1-0.1-0.2-0.1-0.2-0.2
		c0-0.1,0-0.1,0-0.2c0-0.1,0.1-0.1,0.2-0.1c0.1,0,0.3,0,0.4,0.2c0.1,0.1,0.3,0.2,0.3,0.2c0.1,0,0.2-0.1,0.3-0.2s0.1-0.2,0.1-0.3
		c0-0.2-0.1-0.4-0.3-0.5c-0.1-0.1-0.3-0.1-0.6-0.2l0-0.1c0.2-0.1,0.3-0.1,0.3-0.2c0.1-0.1,0.2-0.2,0.2-0.4c0-0.1-0.1-0.2-0.1-0.3
		c-0.1-0.1-0.2-0.1-0.3-0.1c-0.1,0-0.2,0.1-0.3,0.2c0,0.1-0.1,0.1-0.2,0.2l-0.1,0c0.1-0.1,0.1-0.3,0.2-0.4c0.2-0.2,0.4-0.3,0.6-0.3
		c0.2,0,0.3,0,0.5,0.1c0.1,0.1,0.2,0.2,0.2,0.4c0,0.1,0,0.2,0,0.3c0,0.1-0.1,0.2-0.2,0.2l0,0c0.2,0.1,0.3,0.1,0.4,0.3
		c0.1,0.1,0.1,0.3,0.1,0.4C72.5,67.4,72.4,67.7,72.2,67.9z M75.1,67.4C74.9,67.7,74.5,68,74,68l0-0.1c0.2-0.1,0.4-0.2,0.5-0.3
		c0.2-0.2,0.4-0.5,0.4-0.9l0,0c-0.1,0-0.1,0-0.1,0.1c-0.1,0-0.1,0-0.2,0.1c-0.2,0-0.4,0-0.6-0.1c-0.2-0.1-0.3-0.3-0.3-0.6
		c0-0.3,0-0.5,0.2-0.7c0.1-0.2,0.3-0.3,0.6-0.3c0.3,0,0.5,0,0.7,0.2c0.2,0.2,0.3,0.5,0.4,0.8C75.6,66.6,75.5,67.1,75.1,67.4z
		 M104.6,61.2c0,0,0.4,0.1,0.5,0.2c0.1,0.1,0.5,0.2,0.5,0.4c0,0.2-0.2,0.3-0.4,0.3c-0.2,0-0.6-0.2-0.7-0.3
		C104.3,61.7,103.9,61.3,104.6,61.2z M103.4,62.6c0.5,0.1,0.9,0.3,0.9,0.1c0-0.2-0.2-0.2,0-0.3c0.2-0.2,0.6-0.2,0.7-0.2
		c0.1,0,0.6,0.2,0.6,0.4c-0.1,0.2-0.1,0.3-0.2,0.4c-0.1,0,0,0.1,0.1,0.2c0.1,0,0.4,0.3,0.2,0.4c-0.2,0.1-0.8,0-1.1-0.2
		c-0.3-0.2-1.1-0.3-1.4-0.3c-0.2,0-0.7-0.3-0.6-0.5C102.7,62.5,103,62.5,103.4,62.6z M101.9,59.3L101.9,59.3
		C101.9,59.3,102,59.3,101.9,59.3c0.2-0.1,0.3-0.1,0.3-0.1s0,0,0,0c0.1,0,0.2,0,0.2,0.1c0,0,0,0,0,0c0.1,0,0.1,0.1,0.1,0.2
		c0,0,0,0,0,0c0,0.1,0,0.2-0.2,0.2c-0.1,0-0.2,0-0.2-0.1c0,0,0,0,0,0C102,59.5,101.9,59.5,101.9,59.3L101.9,59.3
		C101.9,59.3,101.9,59.3,101.9,59.3z"/>
	<path fill="none" d="M40.9,57.1c-0.2,0.1-2,0.4-2,0.4h2.4c1.1,0,3.1,0.3,4.1,0.4c1.1,0.1,4.1,0.8,4.3,0.8s0.9,0.1,0.9-0.3
		c0-0.4-0.4-0.4-0.7-0.5c-0.4-0.2-2.3-1-3.6-1.7c-1.2-0.7-2.6-2.5-2.8-3c-0.1-0.2,0-0.4,0.1-0.5h0c0-0.1,0.1-0.1,0.1-0.2l0,0
		c0.2-0.2,0.5-0.4,0.6-0.5c0.3-0.2,0.6-0.9,0.6-1.1c0-0.2,0.2-1.3,0.5-2.5c0.3-1.2,0.8-1.7,1.8-2.5c0.9-0.8,2-0.8,2.4-0.8
		c0.4,0,1,0.2,1,0.2s-0.4-0.6-0.6-1.1c-0.2-0.4-0.8-0.1-1.2,0c-0.4,0.1-0.5-0.2-0.7-0.4c0,0,0,0,0-0.1h0c0,0,0,0,0,0c0,0,0,0,0,0h0
		c-0.4-0.9-1.8-4.7-1.9-5.2c-0.2-0.6,0.1-0.7,0.1-0.7s0.5-0.3,0.9-0.5c0.4-0.2,0.4-0.5,0.4-0.5s0-0.6,0-0.8c0-0.2,0.2-0.5,0.2-0.5
		s-0.9-0.8-1.1-0.7c-0.2,0.1-1.2,1.5-2.3,2.7c-1.1,1.2-2.2,2.2-2.2,2.2s0.3,0.1,1.4,0c1.1,0,1.5,0.2,2.2,0.5c0.7,0.4,1,1.4,1,1.6
		c0,0.1-0.1,1-0.1,1.8c-0.1,1-0.1,2-0.1,2.2c0,0.3-0.4,0.5-0.6,0.6c-0.2,0-0.6-0.1-0.8-0.2c-0.2-0.1-0.1-0.5-0.1-0.6
		s0.1-0.4,0.3-0.6c0.2-0.2,0-0.3-0.2-0.4c-0.2-0.1,0-0.4,0.1-0.5c0.1-0.1,0-0.2,0-0.4c0,0,0,0,0,0l0,0c0.1-0.1,0.1-0.2,0.1-0.3
		c-0.1-0.1-0.2-0.4-0.1-0.5c0.2-0.1,0.5-0.7,0.5-1.1s-0.7-0.9-1.2-1.1c-0.5-0.2-2-0.1-2.3,0c-0.3,0.1-1.1,2.2-1,2.5
		c0.1,0.1,0.1,0.3,0.1,0.6c0,0.2,0,0.4,0,0.5c0.1,0.3,0.5,0.4,0.7,0.3c0.3-0.1,1.1,0,1.4,0.1c0.3,0.1,0.7,0.3,0.9,0.7
		c0.2,0.5-0.3,0.6-0.5,0.8c-0.2,0.2-0.2,0.4-0.3,0.8c-0.1,0.4-0.3,1.1-0.2,1.2c0.2,0.2,0.7,0.3,0.9,0.3c0.2,0,0.4,0,0.6,0.2
		s-0.1,0.5-1.1,0.5c-0.9,0-0.7-0.3-1.2-0.5c-0.4-0.2-0.2-1.1-0.1-1.3c0.1-0.2,0.2-0.7,0.2-1.1c0-0.3-0.4-0.9-0.5-1
		c-0.2-0.1-0.5,0-0.7,0c-0.2,0-0.4,0-0.4,0.4c0,0.3-0.5,1.3-0.7,1.7c-0.2,0.4-0.8,1.2-0.9,1.4s0.1,0.4,0.3,0.7
		c0.2,0.2-0.2,0.6-0.6,0.9c-0.4,0.3-1,0.2-1.3,0.1c-0.4,0-0.9,0-1.1,0.2c-0.2,0.2-0.3,0.6-0.2,0.7c0.1,0.1,0.3,0.6,0.5,1.1
		c0.2,0.4,0.3,0.7,0.3,0.8c0.1,0.1,0.3,0.3,0.3,0.3s1.4-0.1,2.1-0.2c0.7-0.1,0.7,0,1.3,0.3c0.6,0.4,0.5,1.2,0.5,2.1
		C41.6,56.8,41.2,57,40.9,57.1z"/>
	<path fill="none" d="M91.3,41c-0.3,1.1-0.7,2-1.1,2.7h0c-0.6,0.9-1.1,1.5-1.1,1.5c0.5,0,1.4,0.1,2.4,0.4c1,0.2,1.7,1.4,1.7,1.4
		s0-0.3,0-0.5c0-0.2,0.3-0.9,0.3-1.4c0-0.3,0-0.9-0.1-1.4c0-0.5-0.1-1-0.1-1.3c0-0.8,0.3-1,0.5-1.4c0.2-0.4,1.2-1,1.2-1h2.6
		c0.4,0,0.5,0,0.3-0.1c-0.1-0.1-1.2-1.2-1.6-1.6c-0.4-0.4-2.4-2.8-2.5-3c-0.1-0.2-0.3-0.3-0.6-0.1c-0.2,0.2-1.2,0.7-1.3,0.8
		c-0.1,0.1,0.1,0.3,0.4,0.6c0.2,0.2-0.4,2.1-0.4,2.1L91.3,41z"/>
	<path fill="none" d="M38.7,28.1c0.1-0.2-0.1-0.4,0-0.6c0-0.2,0.3-0.3,0.5-0.3s0.3,0.7,0.4,1.1s0.7,0.1,0.9,0.1
		c0.2,0,0.7,0.4,1.1,0.7c0.4,0.3,0,0.3-0.3,0.4c-0.3,0.2-0.5,0.3-0.8,0.4c-0.3,0.1-0.5,0.1-0.5,0.3c0,0.2,0.4,0.3,0.7,0.4
		c0.3,0.1,0.3,0.5,0.6,0.8c0.2,0.3,0.2-0.1,0.3-0.3c0-0.2,0.3-0.5,0.5-0.7c0.2-0.2,0.4,0.4,0.6,0.7c0.2,0.3,0.5,0,0.5,0
		s-0.2-0.5-0.1-0.8c0.1-0.3,0.5-0.1,0.9,0c0.4,0,0.4-0.2,0.3-0.5s-0.2-0.4-0.2-0.7c0-0.2,0.5-0.1,0.9,0c0.4,0.1,0.5,0.1,0.6-0.1
		s0.3-0.5,0.1-0.7c-0.2-0.2-0.4-0.5-0.4-0.5s-0.2,0-0.4,0c-0.2,0.1-0.5,0-1,0c-0.5,0-0.8-0.5-0.9-0.7c0-0.2,0.3-0.3,0.3-0.3
		s-0.5-0.4-0.7-0.7c-0.2-0.4-0.4-0.6-0.5-0.7c-0.2-0.1-0.4-0.4-0.7-0.7c-0.3-0.3-0.5-0.6-0.7-0.9c-0.2-0.3,0.3-0.7,0.5-1
		c0.3-0.2,0.4,0,0.4-0.2c0-0.2-0.3-0.5-0.2-0.9c0-0.4,0.3-0.6,0.9-0.7c0.5-0.1,0.9-0.3,1.2-0.5c0.3-0.2,0.5,0.1,0.9,0.1
		c0.4,0,0.1-0.3,0.1-0.7c0-0.4,0.1-0.4,0.1-0.4c-0.1-0.1-0.4-0.2-0.5-0.2s-0.2-0.1-0.3-0.2c-0.1-0.2-0.4-0.4-0.6-0.5
		c-0.3-0.2-0.4-0.4-0.4-0.4l-0.3-0.1c0,0,0,0.1,0.1,0.3c0.1,0.2,0.1,0.3,0.2,0.5c0,0.3,0.2,0.4,0.2,0.7c0,0.3-0.3,0.4-0.5,0.4
		S41,19.7,41,19.7s-0.2-0.3-0.4-0.5c-0.2-0.2-0.2-0.3,0-0.5c0.2-0.2,0.5-0.2,0.8-0.5c0.3-0.3,0.2-0.2,0-0.2
		c-0.2-0.1-0.4-0.1-0.5-0.3c-0.2-0.2-0.2,0-0.4,0c-0.2,0.1-0.4,0-0.4-0.2s0-0.2-0.2-0.5s-0.8-0.2-1-0.1c-0.2,0.1,0.2,0.3,0.4,0.6
		c0.2,0.3,0.1,0.5-0.1,0.6c-0.2,0.1-0.2,0.1-0.4,0.5c-0.2,0.4-0.5,0.2-0.7,0c-0.2-0.2-0.5-0.4-0.7-0.4c-0.2,0.1,0,0.7,0.3,0.9
		c0.2,0.3,0.6,0.1,0.9,0.2c0.4,0.1,0.1,0.5,0.1,0.5s-0.7,0.5-0.9,0.7c-0.2,0.2,0.1,0.3,0.5,0.4c0.4,0.1,0.2,0.8,0.2,1.2
		c0,0.4,0.1,0.3,0.4,0.2c0.3-0.1,0.3,0.1,0.6,0.2c0.4,0.1,0.4,0.2,0.4,0.5c0,0.3,0.2,0.4,0.2,0.8c0,0.5-0.5,0.4-0.9,0.4
		c-0.4,0-0.4-0.3-0.5-0.5c-0.2-0.2-0.2-0.2-0.7-0.2c-0.5,0-0.3,0-0.7-0.1c-0.4-0.1-0.5-0.4-0.6-0.5c-0.1-0.2-0.2-0.3-0.4-0.2
		c-0.2,0-0.3,0.4-0.4,0.9c-0.2,0.5,0.2,0.7,0.2,0.7s1.1,0,1.3-0.1c0.2-0.2,0.2-0.3,0.5-0.3s0.3,0.2,0.5,0.7c0.2,0.5,0.2,0.7,0.3,0.6
		c0.1-0.2,0-0.5,0-0.6c0-0.2,0.5,0,0.6,0.3s0.4,1.2,0.6,1.4c0.2,0.2,0.3,0.2,0.5-0.1c0.2-0.2,0.5-0.1,0.6,0.1c0.1,0.2,0,0.3-0.2,0.3
		c-0.1,0-0.2-0.1-0.4,0.1C40.1,27,40,27,39.8,27.1c-0.2,0.1-0.7-0.4-1-0.6c-0.3-0.2-0.5,0-0.5,0l-0.3,0c0,0,0,0.3,0,0.5
		c0,0.3,0.2,0.3,0.2,0.6c0,0.3-0.1,0.3,0.1,0.4S38.6,28.3,38.7,28.1z"/>
	<path fill="none" d="M44,23.5c-0.2,0.1-0.7,0-0.7,0c0.1,0.2,0.3,0.4,0.6,0.4C44.2,23.8,44.2,23.5,44,23.5z"/>
	<path fill="none" d="M35.1,42.5c0,0.3-0.1,0.4,0,0.5c0.1,0.1,0.3,0.4,0.4,0.7h0c0,0,0,0,0,0c0,0,0,0,0,0h0c0,0.1,0.1,0.1,0.1,0.2
		c0.2,0.5,0,1.2,0.1,1.5c0.1,0.3,0.4,0.2,0.7,0.2c0.2,0,0.2,0.6,0,1.4c-0.2,0.9-1.1,1.5-1.9,1.9c-0.9,0.4-0.5,0.5-0.3,1
		c0.2,0.4-0.2,0.4-0.4,0.4c-0.3,0,0.1,0.8,0.4,1.3c0.1,0.2,0.3,0.5,0.4,0.8c0.2,0.5,0.3,1.1,0.2,1.4c-0.1,0.4,0,0.7,0.4,0.9
		c0.4,0.3,0.4,0.7,0.6,1.1c0.2,0.4,0.8,0,0.8-0.1c0-0.1-0.2-0.5,0.2-0.6c0.4,0,1.6-0.6,1.6-0.6c-0.3,0.1-1.3-0.2-1.7-0.4
		c-0.4-0.2-0.7-0.7-0.8-0.9c0-0.2-0.2-0.6-0.3-0.8c0-0.1-0.1-0.1-0.1-0.2c-0.1-0.2-0.2-0.4-0.2-0.4s0-0.6,0-1.1
		c0-0.5,1.2-1.1,1.6-1.2c0.3-0.1,0.4-0.4,0.5-0.6c0.1-0.2,0.3-0.4,0.3-0.4l0.7,0l0.9-1.4c0,0,0-0.4,0.1-0.5s0.2-0.4,0.2-0.4
		s0-0.6-0.2-0.8c-0.1-0.2-0.1-0.4-0.1-0.4l0-0.4l0-0.3c0,0,0.2-0.4,0.2-0.6s-0.2-0.2-0.2-0.2s0,0,0,0c0-0.1-0.1-0.5-0.2-0.9
		c-0.1-0.5-0.1-0.3,0-0.4c0.1-0.1,0-0.2-0.2-0.4c-0.2-0.2-0.1-0.3,0-0.4c0.1-0.1,0-0.2-0.1-0.3c0-0.1-0.1-0.4,0.1-0.5
		c0.2-0.2,0.5-1.1,0.8-1.6c0.3-0.5,0.7-0.2,0.9-0.3c0.2,0,0.4-0.3,0.5-0.7c0.2-0.4,0.3-0.8,0.5-1c0.3-0.2,0.4-0.2,0.3-0.5
		c0-0.2,0.1-0.5,0.3-0.8c0.2-0.2,0.2-0.6,0.2-0.6s-0.2-0.6-0.5-1.1c-0.2-0.5-0.7-0.5-1.5-0.5c-0.7,0-1.2,0.2-1.5,0.5
		c-0.3,0.3-0.7,1.5-1,2.1c-0.2,0.6-1.1,1.6-1.4,1.8c-0.4,0.2-1.1,0.7-1.5,1.1c-0.4,0.4-0.9,1.8-0.9,2.1
		C34.8,41.8,35.1,42.2,35.1,42.5z"/>
	<path fill="none" d="M39,31.5c-0.2,0.1-0.5,0-0.5,0c0.1,0.9,0.3,0.9,0.5,0.7C39.2,31.9,39.2,31.4,39,31.5z"/>
	<path fill="none" d="M101.6,32.5c0.2,0.1,0.3-0.3,0.3-0.5c0-0.2-0.6-0.2-0.6-0.2S101.3,32.4,101.6,32.5z"/>
	<path fill="none" d="M36.6,21c0.1-0.4,0.2-1,0.2-1c-0.2,0.2-0.5,0.8-0.5,1.1S36.6,21.3,36.6,21z"/>
	<path fill="none" d="M32.1,31.6c0.1,0.6,0,1.1-0.1,1.9c-0.1,0.8-0.5,2-0.6,2.5c-0.1,0.5-0.1,1.8-0.1,2.4c0,0.6,0,1.8,0.1,2.7
		c0.1,0.9,0.6,1.2,1.3,1.4c0.7,0.2,0.8-0.3,0.8-0.3l0-0.1c-0.2-0.1-0.5-0.1-0.7-0.2c-0.2-0.1-0.4-0.4-0.5-0.6
		c-0.1-0.2-0.2-0.6-0.2-0.8c0-0.2-0.3-0.8-0.3-1.1c0-0.3,0.1-1.4,0.2-2c0.1-0.6,0.4-2,0.6-2.6c0.2-0.5,0.4-1.9,0.4-2.3
		c0-0.4,0-1.4-0.1-1.8c-0.1-0.4-0.3-0.4-0.5-0.3C32.1,30.7,32,31,32.1,31.6z"/>
	<polygon fill="none" points="76.3,124.1 75.6,125.9 77.1,125.9 76.4,124.1 	"/>
	<path fill="none" d="M129.3,82.5c0-0.2-0.2-0.3-0.4-0.3h-0.4v0.6h0.3C129.1,82.8,129.3,82.8,129.3,82.5z"/>
	<path fill="none" d="M128.9,81.6c-0.7,0-1.3,0.6-1.3,1.3c0,0.7,0.6,1.3,1.3,1.3c0.7,0,1.3-0.6,1.3-1.3
		C130.2,82.2,129.6,81.6,128.9,81.6z M129.4,83.8l-0.5-0.8h-0.4v0.8h-0.2V82h0.7c0.4,0,0.6,0.2,0.6,0.5c0,0.3-0.2,0.5-0.4,0.5
		l0.5,0.8H129.4z"/>
	<path fill="none" d="M29.8,25.9c0-0.1,0.1,0,0.2-0.4c0-0.4,0.4-0.4,0.9-0.5c0.5,0,0.6,0.7,0.9,1.2c0.3,0.5,0.6,0.5,0.6,0.2
		c0-0.3-0.3-0.8-0.7-1.4c-0.4-0.6-0.5-0.4-1.1-0.4c-0.7,0-0.9,1.2-0.9,1.2c0,0.1,0,0.1,0,0.2C29.6,26.1,29.7,26,29.8,25.9z"/>
	<path fill="none" d="M29.6,29c0,0,0,0.7,0.1,1.1c0.1,0.4,0.2,0.2,0.2,0.2v-1.3c0-0.3,0-0.4,0.2-0.4s0.2-0.2,0.1-0.5
		c-0.1-0.4-0.6-0.5-0.9-0.4C29,27.7,29,28.5,29,28.5C29.3,28.4,29.6,29,29.6,29z"/>
	<path fill="none" d="M109.2,127.7c0.6,0,1-0.3,1.2-1c0.1-0.4,0.2-0.9,0.2-1.5c0-0.8-0.1-1.5-0.4-1.9c-0.2-0.4-0.6-0.6-1-0.6
		c-0.6,0-1,0.4-1.2,1.1c-0.1,0.4-0.2,0.9-0.2,1.5c0,0.6,0.1,1.1,0.2,1.5C108.2,127.3,108.6,127.7,109.2,127.7z"/>
	<path fill="none" d="M37.6,28.2l-0.2,0c0,0-0.1,0.5,0,1.1c0.1,0.5,0.5,1.2,0.5,1.2s0-0.2-0.1-0.5C37.7,29.7,37.6,28.2,37.6,28.2z"
		/>
	<path fill="none" d="M104.2,20.9c-0.1-0.2-0.3-0.7-0.3-0.7s0.1,0.7,0.2,0.9C104.2,21.3,104.2,21.1,104.2,20.9z"/>
	<path fill="none" d="M45.7,31.7c0,0.3-0.3,0.5-0.3,0.5c0.1,0.2,0.6,0.4,0.9,0.3c0.3-0.1,0.5,0,0.8,0.3c0.2,0.3,0.5,0.5,0.8,0.7
		s0.3,0.3,0.5,0.5c0.2,0.2,0.3,0.1,0.6,0.1c0.3,0,0.4,0.4,0.6,0.7c0.2,0.3,0.3,0.2,0.5,0.1c0.2,0,0.4-0.2,0.8-0.2
		c0.4,0,0.4,0.1,0.8,0.2c0.4,0.1,0.3,0.2,0.5,0.4c0.2,0.2,0.6-0.1,0.9-0.2c0.3-0.2-0.2-0.5-0.2-0.5s-0.3,0-0.5-0.1
		c-0.2,0-0.2-0.5-0.2-0.5l0-0.4c0,0-0.6,0.1-1-0.2c-0.4-0.3-2.6-1.3-2.7-1.3s-0.5-0.2-0.6-0.3c-0.2-0.1-0.4-0.3-0.6-0.5
		c-0.2-0.2-0.4-0.4-0.6-0.4c-0.2,0.1-0.7-0.1-0.9,0S45.7,31.4,45.7,31.7z"/>
	<path fill="none" d="M95.7,29.1c0.3-0.1,0.6,0,0.8,0.1c0.2,0.1-0.2,0.5-0.3,0.7c-0.1,0.2,0.1,0.4,0.3,0.4c0.3,0,0.4-0.1,0.8,0.1
		c0.3,0.2,0.1,0.5,0,0.7c-0.1,0.3,0.1,0.3,0.3,0.3c0.2,0,0.2-0.3,0.4-0.6s0.3-0.4,0.5-0.3c0.3,0.1,0.3,0.4,0.4,0.7s0.1,0.4,0.3,0.3
		c0.1-0.1,0.3-0.3,0.4-0.6c0.2-0.3,0.4-0.3,0.8-0.4c0.4-0.1-0.1-0.3-0.6-0.5c-0.5-0.2-1.1-0.6-1-0.8c0.1-0.3,0.4-0.3,0.7-0.4
		c0.3-0.1,0.4-0.3,0.6-0.2c0.2,0,0.5,0.1,0.7,0c0.2-0.1,0.3-0.7,0.4-0.9c0.1-0.2,0.4-0.2,0.6-0.1c0.2,0.1,0.1,0.5,0.1,0.7
		c0,0.3,0.2,0.2,0.4,0.2c0.2-0.1,0.1-0.3,0.1-0.5c0-0.2,0.2-0.4,0.3-0.6c0.1-0.3-0.1-0.4-0.4-0.5c-0.3-0.1-0.6,0.2-0.8,0.4
		c-0.1,0.2-0.4,0.1-0.6,0.2c-0.3,0.1-0.3-0.1-0.5-0.3c-0.2-0.1-0.1,0-0.4-0.1c-0.2,0-0.3-0.2-0.3-0.4c0-0.2,0.2-0.3,0.5-0.3
		c0.3,0,0.3,0.3,0.6,0.3c0.3,0,0.4-0.4,0.5-0.7c0.1-0.3,0.3-0.8,0.5-1s0.1,0,0.4,0.1c0.2,0.1,0.3,0.1,0.3-0.1c0-0.2,0.2-0.5,0.4-0.8
		c0.2-0.3-0.1-0.2-0.4-0.1c-0.3,0-0.2,0.2-0.4,0.4s-0.3,0.3-0.5,0.4s-0.5-0.2-0.7-0.3c-0.2-0.1-0.3-0.2-0.3-0.4
		c-0.1-0.2,0.2-0.4,0.2-0.6c0-0.2,0.1-0.3,0.2-0.6c0.1-0.3,0.4-0.1,0.6-0.3c0.3-0.1,0.2,0.1,0.5,0.1c0.3,0,0.2-0.2,0.2-0.4
		c0-0.2-0.1-0.5,0-0.8c0.1-0.4,0.3-0.3,0.6-0.3c0.3,0,0.1-0.1,0.1-0.4c0-0.3-0.3-0.3-0.5-0.3c-0.2-0.1-0.4-0.4-0.4-0.6
		s0.3-0.1,0.6-0.2c0.3-0.1,0.6-0.2,0.7-0.4c0.1-0.2,0.1-0.4,0-0.6s-0.4,0.1-0.4,0.3c-0.1,0.2-0.4,0.2-0.6,0.2
		c-0.2-0.1-0.3-0.5-0.5-0.6c-0.2-0.1-0.3-0.3-0.3-0.5c-0.1-0.1,0.3-0.6,0.4-0.8c0.1-0.2-0.4-0.2-0.4-0.2s-0.2,0.2-0.5,0.2
		c-0.3,0-0.2,0.2-0.2,0.5c0,0.3-0.1,0.2-0.3,0.2c-0.2-0.1-0.1-0.1-0.6-0.1c-0.4,0.1-0.2,0.1-0.4,0.2c-0.2,0.1-0.2,0.1-0.1,0.4
		c0.2,0.3,0.8,0.4,0.9,0.5c0.2,0.1,0,0.3-0.2,0.4c-0.2,0.1-0.2,0.3-0.5,0.6c-0.3,0.2-1,0.1-1.3,0.1c-0.3-0.1-0.1-0.4-0.1-0.6
		c0.1-0.2,0-0.6,0-0.6S97.6,19,97.5,19c-0.1,0.1-0.5,0.5-0.6,0.6c-0.1,0.1-0.5,0-0.5,0s0,0.1,0.1,0.4s0,0.2-0.1,0.5
		c-0.1,0.2,0.1,0.4,0.2,0.4s0.3-0.1,0.5-0.2s0.3,0,0.5,0.2c0.2,0.2,0.3,0.3,0.7,0.3s0.4,0.2,0.8,0.4c0.4,0.2,0.3,0.6,0.2,0.9
		s0,0.4,0.2,0.5c0.3,0.1,0.5,0.7,0.6,1c0.1,0.3-0.4,0.6-0.8,0.9c-0.5,0.4-0.2,0.3-0.6,0.7c-0.4,0.4-0.5,0.4-0.6,0.7
		c-0.1,0.3-0.5,0.4-0.6,0.6c-0.1,0.2,0.2,0.3,0.2,0.6c0,0.3-0.6,0.5-1.1,0.5c-0.5,0.1-1.3-0.1-1.3-0.1c0,0.2-0.2,0.4-0.3,0.6
		c-0.1,0.1-0.1,0.2,0,0.5C95.1,29.2,95.4,29.2,95.7,29.1z"/>
	<ellipse fill="none" cx="96.9" cy="23.9" rx="0.4" ry="0.2"/>
	<path fill="none" d="M103.8,24.7c0.4,0,0.6,0,0.8-0.2c0.2-0.2-0.1-0.8-0.2-1.1c-0.1-0.4-0.3-0.2-0.5,0.2c-0.2,0.4-0.8,0.5-0.8,0.5
		C103.2,24.3,103.5,24.7,103.8,24.7z"/>
	<path fill="none" d="M88.2,33.7c-0.2,0,0,0.2,0.1,0.5c0.1,0.3-0.1,0.5-0.1,0.5l-0.7,0c-0.1,0.1-0.2,0.3-0.2,0.4
		c0,0.1,0.3,0.3,0.7,0.3c0.4,0,0.4-0.3,0.6-0.5c0.2-0.2,0.4-0.2,0.7-0.2c0.3,0,0.5,0.1,0.6,0.1c0.1,0.1,0.5,0.1,0.7,0.1
		c0.2,0,0.4-0.5,0.6-0.7c0.2-0.2,0.5-0.1,0.7-0.2c0.2,0,0.3-0.4,0.4-0.5c0.1-0.1,0.5-0.2,0.6-0.3c0.1-0.1,0.4-0.4,0.4-0.5
		c0.1-0.1,0.2-0.2,0.6-0.2c0.4,0,0.7-0.2,0.9-0.2s0.1-0.2,0-0.5c-0.1-0.3,0-0.7-0.1-0.8c-0.1-0.1-0.9-0.1-1.1,0.2
		c-0.2,0.3-0.9,0.7-1.5,0.9c-0.7,0.2-2.8,1.4-3,1.4C88.8,33.8,88.3,33.7,88.2,33.7z"/>
	<path fill="none" d="M53.5,100.4c0.5-1.5,0.7-3.5,0.7-5.9c0-3.3-0.5-5.8-1.5-7.5c-1-1.7-2.3-2.5-4-2.5c-2.4,0-4,1.4-4.9,4.2
		c-0.5,1.5-0.7,3.4-0.7,5.8c0,2.4,0.2,4.4,0.7,5.9c0.9,2.8,2.5,4.2,4.8,4.2C51,104.6,52.6,103.2,53.5,100.4z"/>
	<path fill="none" d="M51.7,32.7c0.4,0.1,0.5-0.5,0.7-0.7c0.2-0.2,0.6-0.4,0.6-0.4s-0.1-0.4-0.1-0.7c0-0.3,0.7-2.8,1-3.6
		c0.4-0.9,1.2-2.4,1.7-3.2c0.4-0.7,2.5-3.7,6.5-5.8c3.3-1.8,6.7-2,9.4-1.8c2.8,0.2,5,0.9,7.3,2.2c3,1.6,5,4.2,6.3,6.4
		c1.4,2.2,2.1,5.8,2.2,6.2s-0.4,0.6-0.4,0.6s0.2,0,0.5-0.1c0.3-0.1,0.6,0.4,0.8,0.6s0.5,0.3,0.5,0.3s2.3-1,2.7-1.5
		c0.4-0.5,0.5-1,0.5-1s-0.2,0.2-0.3,0.4c-0.2,0.2-0.5,0.2-0.7,0.1c-0.2-0.1-0.4-2.1-1.4-4.9c-1.2-3.2-3-5.6-6.7-8.5
		c-3.2-2.7-7.8-3.7-9.1-4c-1.3-0.2-4.7-0.4-8.1,0.3c-3.4,0.6-7.5,2.7-10.3,5.7c-5.2,5.5-5.5,10.1-5.8,10.9c-0.3,0.9-0.7,0.3-0.7,0.3
		c0.1,0.3,0.3,0.5,0.6,1C49.7,31.9,51.3,32.5,51.7,32.7z M89,31.1c0.3,0,0.5,0.2,0.5,0.5c0,0.3-0.2,0.5-0.5,0.5
		c-0.3,0-0.5-0.2-0.5-0.5C88.5,31.4,88.7,31.1,89,31.1z M70,14.1c0.3,0,0.5,0.2,0.5,0.5c0,0.3-0.2,0.5-0.5,0.5
		c-0.3,0-0.5-0.2-0.5-0.5C69.5,14.4,69.8,14.1,70,14.1z M51.1,31.1c0.3,0,0.6,0.2,0.6,0.5c0,0.3-0.2,0.5-0.6,0.5s-0.6-0.2-0.6-0.5
		C50.5,31.3,50.7,31.1,51.1,31.1z"/>
	<path fill="#FFFFFF" d="M16.6,103.9c-0.4,0.2-1,0.3-1.8,0.3v0.8h10.1c2.7,0,4.8-0.5,6.4-1.6c1.6-1.1,2.4-2.5,2.4-4.2
		c0-1.9-0.8-3.3-2.5-4.3c-0.9-0.5-1.9-0.9-3-1.1v-0.3c1.1-0.2,2.1-0.7,3.1-1.4c0.9-0.8,1.4-1.8,1.4-3.1c0-2.1-1.2-3.6-3.5-4.4
		c-1.2-0.4-2.8-0.6-4.6-0.6h-9.7v0.8c0.9,0.1,1.5,0.2,1.9,0.4c0.6,0.3,0.9,0.9,0.9,1.8V102C17.5,102.9,17.2,103.5,16.6,103.9z
		 M22.5,86.3c0-0.6,0.1-1,0.4-1.2c0.3-0.2,0.7-0.3,1.4-0.3c1.2,0,2.1,0.4,2.5,1.2c0.4,0.8,0.6,1.8,0.6,3c0,1.6-0.3,2.7-1,3.4
		c-0.7,0.6-2,0.9-3.9,0.9V86.3z M22.5,94.3c1.7,0,2.9,0.2,3.7,0.6c1.3,0.7,2,2.2,2,4.4c0,1.5-0.3,2.6-0.9,3.4
		c-0.6,0.8-1.6,1.2-3.1,1.2c-0.7,0-1.2-0.2-1.5-0.7c-0.2-0.3-0.2-0.7-0.2-1.2V94.3z"/>
	<path fill="#FFFFFF" d="M56.6,102.6c2.1-2.1,3.2-4.8,3.2-8.1c0-3.3-1.1-6-3.2-8.1c-2.1-2-4.7-3.1-7.9-3.1c-3.3,0-6,1.1-8,3.2
		c-2.1,2.1-3.1,4.8-3.1,8.1c0,3,1,5.5,2.9,7.6c2.1,2.2,4.8,3.3,8.2,3.3C51.8,105.6,54.5,104.6,56.6,102.6z M43.8,100.4
		c-0.5-1.5-0.7-3.5-0.7-5.9c0-2.4,0.2-4.3,0.7-5.8c0.9-2.8,2.5-4.2,4.9-4.2c1.7,0,3,0.8,4,2.5c1,1.7,1.5,4.2,1.5,7.5
		c0,2.4-0.2,4.4-0.7,5.9c-0.9,2.8-2.5,4.2-4.8,4.2C46.3,104.6,44.7,103.2,43.8,100.4z"/>
	<path fill="#FFFFFF" d="M83.3,103.7v-4c0-1.1,0.2-1.8,0.5-2.2c0.4-0.4,1.1-0.6,2.1-0.6V96H75.2v0.8c1.2,0,1.9,0.1,2.3,0.3
		c0.6,0.3,0.9,0.9,0.9,1.9v3.3c0,0.6-0.1,1.1-0.4,1.4c-0.5,0.6-1.4,0.8-2.7,0.8c-2.5,0-4.1-1-5-3.1c-0.9-2-1.3-4.4-1.3-7
		c0-3.2,0.5-5.6,1.4-7.4c0.9-1.8,2.4-2.6,4.4-2.6c1.9,0,3.5,0.8,5,2.5c0.8,0.9,1.6,2.2,2.3,3.8h0.8v-7.3H82
		c-0.1,0.5-0.3,0.8-0.5,1.1c-0.2,0.2-0.5,0.4-0.8,0.4c-0.3,0-1.1-0.2-2.4-0.7s-2.6-0.7-3.9-0.7c-3.2,0-5.9,1.1-8,3.3
		c-2,2.1-3,4.7-3,7.9c0,3.1,1,5.7,2.9,7.7c2.1,2.2,4.9,3.3,8.3,3.3c1.9,0,3.6-0.2,5.2-0.6C81.5,104.5,82.6,104.1,83.3,103.7z"/>
	<path fill="#FFFFFF" d="M105.7,104.9c1.5-0.4,2.7-0.9,3.4-1.3v-4c0-1.1,0.2-1.8,0.5-2.2c0.4-0.4,1.1-0.6,2.1-0.6V96H101v0.8
		c1.2,0,1.9,0.1,2.3,0.3c0.6,0.3,0.9,0.9,0.9,1.9v3.3c0,0.6-0.1,1.1-0.4,1.4c-0.5,0.6-1.4,0.8-2.7,0.8c-2.5,0-4.1-1-5-3.1
		c-0.9-2-1.3-4.4-1.3-7c0-3.2,0.5-5.6,1.4-7.4c0.9-1.8,2.4-2.6,4.4-2.6c1.9,0,3.5,0.8,5,2.5c0.8,0.9,1.6,2.2,2.3,3.8h0.8v-7.3h-0.9
		c-0.1,0.5-0.3,0.8-0.5,1.1c-0.2,0.2-0.5,0.4-0.8,0.4c-0.3,0-1.1-0.2-2.4-0.7c-1.3-0.5-2.6-0.7-3.9-0.7c-3.2,0-5.9,1.1-8,3.3
		c-2,2.1-3,4.7-3,7.9c0,3.1,1,5.7,2.9,7.7c2.1,2.2,4.9,3.3,8.3,3.3C102.4,105.6,104.2,105.4,105.7,104.9z"/>
	<path fill="#FFFFFF" d="M116.4,103.9c-0.4,0.2-1,0.3-1.9,0.3v0.8h10.9v-0.8c-1,0-1.7-0.1-2.2-0.4c-0.5-0.3-0.7-0.9-0.7-1.8V86.8
		c0-0.9,0.3-1.6,0.9-1.9c0.4-0.2,1-0.3,2-0.3v-0.8h-10.9v0.8c0.9,0,1.6,0.2,2,0.3c0.6,0.3,0.9,0.9,0.9,1.9V102
		C117.3,102.9,117,103.5,116.4,103.9z"/>
	<path fill="#FFFFFF" d="M33.9,122.8c0.1-0.1,0.3-0.1,0.5-0.1v-0.2h-2l-1.5,3.6h-0.1l-1.5-3.6h-2v0.2c0.3,0,0.4,0.1,0.5,0.1
		c0.1,0.1,0.2,0.2,0.2,0.4v3.7c0,0.2,0,0.4-0.1,0.5c-0.1,0.1-0.3,0.2-0.6,0.2v0.2h1.8v-0.2c-0.3,0-0.5-0.1-0.6-0.2
		c-0.1-0.1-0.1-0.3-0.1-0.6v-3.5h0l1.9,4.5h0.2l1.9-4.6h0.1v3.8c0,0.2-0.1,0.4-0.2,0.5c-0.1,0.1-0.3,0.1-0.5,0.1v0.2h2.6v-0.2
		c-0.3,0-0.4-0.1-0.5-0.1c-0.1-0.1-0.1-0.3-0.1-0.6v-3.5C33.7,123.1,33.8,122.9,33.9,122.8z"/>
	<path fill="#FFFFFF" d="M47.3,122.8c0.1,0,0.3-0.1,0.5-0.1v-0.2h-2.7v0.2c0.2,0,0.4,0,0.5,0.1c0.2,0.1,0.2,0.2,0.2,0.5v3.8
		c0,0.2-0.1,0.4-0.2,0.5c-0.1,0-0.3,0.1-0.5,0.1v0.2h2.7v-0.2c-0.2,0-0.4,0-0.5-0.1c-0.1-0.1-0.2-0.2-0.2-0.4v-3.8
		C47.1,123,47.2,122.9,47.3,122.8z"/>
	<path fill="#FFFFFF" d="M63.4,126h-0.2c-0.2,0.6-0.5,1-0.8,1.2c-0.3,0.2-0.7,0.3-1.2,0.3c-0.3,0-0.4,0-0.5-0.1
		c-0.1-0.1-0.1-0.2-0.1-0.3v-3.7c0-0.3,0.1-0.5,0.2-0.6c0.1-0.1,0.3-0.1,0.6-0.1v-0.2h-2.7v0.2c0.2,0,0.4,0,0.5,0.1
		c0.1,0.1,0.2,0.2,0.2,0.5v3.8c0,0.2-0.1,0.4-0.2,0.5c-0.1,0-0.2,0.1-0.5,0.1v0.2h4.5L63.4,126z"/>
	<path fill="#FFFFFF" d="M77.5,127.5c-0.1,0-0.2,0.1-0.5,0.1v0.2h2.5v-0.2c-0.2,0-0.3-0.1-0.4-0.2c-0.1-0.1-0.2-0.4-0.4-0.9
		l-1.7-4.1h-0.2l-1.7,4.3c-0.1,0.3-0.2,0.6-0.3,0.7c-0.1,0.2-0.3,0.2-0.5,0.3v0.2h1.6v-0.2c-0.2,0-0.3,0-0.4,0
		c-0.2-0.1-0.2-0.1-0.2-0.2c0-0.1,0-0.2,0.1-0.4c0-0.1,0.1-0.3,0.2-0.6h1.8l0.2,0.5c0,0.1,0.1,0.2,0.1,0.3c0,0.1,0.1,0.2,0.1,0.3
		C77.6,127.4,77.6,127.5,77.5,127.5z M75.6,125.9l0.7-1.8h0.1l0.8,1.8H75.6z"/>
	<path fill="#FFFFFF" d="M91.3,123.8l3.4,4.2H95v-4.6c0-0.2,0-0.4,0.1-0.5c0.1-0.1,0.2-0.1,0.5-0.2v-0.2h-1.7v0.2
		c0.3,0,0.5,0.1,0.6,0.2c0.1,0.1,0.1,0.3,0.1,0.6v2.3h0l-2.7-3.3h-1.7v0.2c0.1,0,0.2,0,0.2,0.1c0.1,0,0.2,0.2,0.4,0.5v3.7
		c0,0.2,0,0.4-0.1,0.5c-0.1,0.1-0.3,0.2-0.6,0.2v0.2H92v-0.2c-0.3,0-0.5-0.1-0.6-0.3c-0.1-0.1-0.1-0.3-0.1-0.5L91.3,123.8
		L91.3,123.8z"/>
	<path fill="#FFFFFF" d="M109.2,127.9c0.8,0,1.4-0.3,2-0.8c0.5-0.5,0.8-1.2,0.8-2s-0.3-1.5-0.8-2c-0.5-0.5-1.2-0.8-2-0.8
		c-0.8,0-1.5,0.3-2,0.8c-0.5,0.5-0.8,1.2-0.8,2c0,0.7,0.2,1.4,0.7,1.9C107.6,127.7,108.3,127.9,109.2,127.9z M107.9,123.7
		c0.2-0.7,0.6-1.1,1.2-1.1c0.4,0,0.8,0.2,1,0.6c0.2,0.4,0.4,1,0.4,1.9c0,0.6-0.1,1.1-0.2,1.5c-0.2,0.7-0.6,1-1.2,1
		c-0.6,0-1-0.3-1.2-1c-0.1-0.4-0.2-0.9-0.2-1.5C107.8,124.6,107.8,124.1,107.9,123.7z"/>
	<path fill="#FFFFFF" d="M128.9,81.4c-0.9,0-1.5,0.7-1.5,1.5c0,0.9,0.7,1.5,1.5,1.5c0.9,0,1.5-0.7,1.5-1.5
		C130.4,82.1,129.7,81.4,128.9,81.4z M128.9,84.2c-0.7,0-1.3-0.6-1.3-1.3c0-0.7,0.6-1.3,1.3-1.3c0.7,0,1.3,0.6,1.3,1.3
		C130.2,83.6,129.6,84.2,128.9,84.2z"/>
	<path fill="#FFFFFF" d="M129.6,82.5c0-0.3-0.2-0.5-0.6-0.5h-0.7v1.8h0.2V83h0.4l0.5,0.8h0.3l-0.5-0.8
		C129.4,83,129.6,82.8,129.6,82.5z M128.8,82.8h-0.3v-0.6h0.4c0.2,0,0.4,0.1,0.4,0.3C129.3,82.8,129.1,82.8,128.8,82.8z"/>
	<path fill="#FFFFFF" d="M28.1,29c0,0.7,0.4,1.4,0.8,2.3c0.4,0.9,0.3,1.4,0.2,1.8c-0.1,0.4,0.1,1.3,0.4,1.8c0.3,0.6,0.5,1.4,0.5,1.7
		c0,0.3,0.3,0.4,0.5,0.2c0.2-0.2,0.2-0.9,0.3-1.4c0.1-0.4,0.5-2.6,0.6-2.8c0.1-0.1,0.1-0.6,0-0.7c0-0.1,0-0.4,0.1-0.7
		c0.1-0.3,0-0.8,0-1c0-0.2-0.1-0.8,0-1c0.1-0.2,0-0.8-0.1-1.1c0-0.3-0.2-0.7-0.5-0.9s-0.4-0.5-0.4-0.8c0.1-0.4,0.4-0.4,0.6-0.2
		c0.1,0.2,0.4,0.7,0.4,0.7s-0.1,0.4,0,0.9c0.1,0.4,0.2,1.4,0.2,1.4s0,0.8,0,1.4c0,0.5,0,1.9-0.3,2.6c-0.2,0.7-0.4,1.9-0.5,3.1
		c-0.1,1.2-0.1,2.2-0.2,3.8c-0.1,1.6,0.5,2.3,0.7,2.6s1.2,0.7,1.6,0.7c0.3,0,1.1,0,1.1,0s0,0.2,0.1,0.3c0,0,0,0,0,0c0,0,0,0,0,0.1h0
		c0,0,0,0.1,0,0.1c0.1,0.3,0.7,1.7,0.9,2.2s0,1.1-0.1,1.2c-0.1,0.1,0,0.3,0,0.5s-0.3,0.5-0.6,0.6c-0.3,0.1-0.8,0.2-1.1,0.4
		s-0.4,0.7-0.5,1.3c-0.1,0.5-0.2,1.3-0.3,1.7c-0.1,0.2,0,0.5,0.1,0.8v0c0.1,0.5,0.3,1,0.4,1.4c0.2,0.7,0.9,1.4,1.4,1.6
		c0.4,0.2,0.4,0.4,0.4,0.4s0,0.8,0.3,1.1c0.3,0.3,0.8,0.5,1.6,0.5c0.8,0,1.3,0.1,1.3,0.1c-0.6,0.1-2.4,0.3-3.3,0.4
		c-0.9,0.2-1.9,0.5-2.8,0.8c-0.9,0.3-1.4,1-1.6,1.4c-0.2,0.4,0.4,0.7,0.7,0.9c0.1,0.1,0.2,0.1,0.2,0.2c0,0.1,0,0.3-0.1,0.6
		c-0.2,0.5-1.1,2.1-1.4,2.5c-0.3,0.4,0,0.9,0.5,1.2c0.5,0.3,1.5,0.8,3.5,1.2c2,0.4,4.6,0.6,6.7,0.7c2.1,0.1,4.6-0.5,6.6-0.9
		c2-0.3,2.6-0.2,3.7-0.2c1.1,0,2.9,0.5,4,1c1.1,0.5,3.7,1.1,6,1.7c2.3,0.5,6.2,0.9,9.1,0.9s3.7-0.1,7.5-0.7c3.7-0.6,10-2.3,11.2-2.6
		c1.2-0.3,1.2-0.1,3.4,0.2c2.2,0.3,3.9,0.7,8.1,0.6c4.2-0.2,6.2-1,7-1.5c0.8-0.5,0.7-0.7,0.7-1.3c0.1-0.5-0.4-0.8-0.5-1.1
		c-0.1-0.2-0.5-0.7-0.5-1.3c0-0.5,0-0.7,0.3-1.1c0-0.1,0.1-0.1,0.2-0.2c0.4-0.4,0.2-0.6,0-1.2s-1.4-1-1.9-1.2
		c-0.5-0.2-1.8-0.4-2.3-0.5c-0.5-0.1-1.4-0.4-1.4-0.4s0.3,0,0.5-0.2c0.3-0.2,0.2,0,0.9,0c0.7,0,0.8-0.1,1.4-0.4
		c0.6-0.3,0.5-0.7,0.5-1.2c0.1-0.5,0-0.2,0.5-0.4c0.5-0.2,0.6-0.4,1.1-1.2c0.4-0.7,0.6-1.3,0.7-1.8h0c0,0,0-0.1,0-0.1c0,0,0,0,0,0h0
		c0-0.1,0-0.2,0-0.2c0.1-0.6-0.1-0.7-0.2-1.1c-0.1-0.5-0.1-0.8-0.1-1.2c0-0.4-0.3-0.7-0.5-1c-0.2-0.3-0.8-0.3-1.1-0.4
		c-0.3-0.1-0.3-0.4-0.3-0.7c0-0.3-0.1-0.5-0.2-0.8c-0.1-0.3-0.1-0.3,0.2-0.8s0.9-2.1,0.9-2.1s0-0.2,0.1-0.4c0,0,0.1-0.1,0.1-0.1
		c0.2,0,0.8,0,1.7-0.2c0.9-0.2,0.9-0.6,1.3-1.2c0.4-0.5,0.4-1.7,0.4-2.3c0-0.6-0.2-1.7-0.2-2.2c0-0.5-0.3-1.8-0.3-1.9
		c0-0.2-0.2-2.5-0.3-3.1c-0.1-0.6-0.4-2.8-0.4-3.1s0.5-1.9,0.7-2.1c0.1-0.2,0.3-0.6,0.5-1c0.2-0.4,0.3-0.4,0.5-0.2
		c0.2,0.2,0.2,0.6-0.1,0.9c-0.3,0.3-0.6,0.5-0.9,0.9c-0.3,0.3-0.3,1-0.4,1.5c-0.2,0.5,0.1,1,0.2,1.8c0.2,0.9,0.2,1.8,0.2,2.1
		c0,0.4,0.3,1.9,0.3,2.5c0,0.6,0.4,1.1,0.8,1.1c0.4,0,0.3-0.4,0.4-0.8c0-0.4,0.2-0.8,0.4-1.1c0.2-0.3,0.4-0.9,0.5-1.4
		c0.1-0.5-0.2-1.2-0.1-1.5c0-0.3,0.3-0.8,0.8-1.9c0.5-1.1,0.4-1.5,0.4-1.9s-0.5-1.1-0.5-1.1s0-0.8-0.2-1.7c-0.1-0.9-1.3-1.7-2.1-1.6
		c-0.8,0-1.4,0.5-2.1,1.9c-0.8,1.4-0.8,4.5-0.7,6.7c0.1,2.2,0.7,5.3,0.9,6.5c0.2,1.2-0.3,2.1-0.6,2.4c-0.3,0.2-0.5-0.1-0.7-0.3
		c-0.2-0.2-0.3-1-0.5-1.5c-0.3-0.5-0.7-0.9-1.1-1.2c-0.4-0.3-1.4-1.1-1.7-1.4c-0.3-0.3-0.9-1.8-0.9-2.1c0-0.3,0.1-0.3,0.5-0.5
		c0.4-0.2,0.5-0.4,0.7-0.7c0.3-0.3,0.1-0.6-0.1-0.7s-0.5-0.7-0.4-1.1c0.1-0.4,0.6-1.1,1.2-1.9c0.7-0.8,0.7-1.6,0.7-1.8
		c0.1-0.2,0.6-0.2,1.2-0.5c0.6-0.3,0.5-0.9,0.4-1.2s-0.8-0.2-0.9-0.4s-0.1-0.7-0.1-1.1c0-0.4,0.4-1.5,0.6-2.1
		c0.2-0.7,0.3-0.9,0.6-1.2c0.4-0.2,0-0.5-0.2-0.8c-0.2-0.3-0.3-0.9-0.6-1.6c-0.3-0.7-0.4-1.2-0.4-1.4c0-0.2-0.3-0.5-0.4-0.6
		s-0.5-0.3-0.6-0.5c-0.2-0.2-0.5-0.4-0.6-0.4c-0.1,0,0-0.2,0.1-0.4c0.1-0.2-0.3-0.4-0.8-0.6c-0.5-0.2-0.2-0.3-0.5-0.2
		s-1,0.2-1.2-0.1c-0.3-0.3-1-0.2-1.4-0.1c-0.4,0.1-0.4,0.7-0.5,0.9c-0.1,0.2-0.2,0.7-0.8,0.9c-0.7,0.2-1.1,0.5-1.9,1
		c-0.9,0.4-1.6,1.1-1.7,1.5c-0.2,0.4,0.5,1,0.5,1.4c0.1,0.4-0.2,0.5-0.5,0.5c-0.4,0.1-1.1,0.4-1.6,0.7c-0.5,0.4-0.1,0.6,0.4,0.6
		c0.5,0,1.4,0,1.6,0.2c0.2,0.1,0.2,0.3,0.2,0.6c0,0.4,0.2,0.7,0.6,1.2c0.4,0.5,0.5,0.7,0.5,0.7s-0.5,0.3-1.2,0.5
		c-0.8,0.2-1.8,0.2-2.1,0.2c-0.3,0-0.5,0.1-0.7,0.1c-0.1,0-0.5-0.3-0.8,0c-0.3,0.3-0.5,0.4-0.8-0.6c-0.3-1-1.5-3.2-2.9-5.3
		c-1.4-2-4-4.4-7.5-6.4c-3.6-2-8.1-2.6-10.5-2.6c-2.4,0-5.2,0.5-7.8,1.4c-2.6,0.9-7.5,4-10,7.1c-2.5,3.1-4.1,8.3-4.1,8.6
		c0,0.2,0.1,0.5,0,0.6c-0.1,0.1-0.4-0.2-0.4-0.3c-0.1-0.1,0.1-0.4,0.1-0.5c0,0,0-0.1,0-0.1c0.2-0.5,0.4-1.4,0.3-1.5
		c-0.1-0.1-0.2,0-0.5,0.1c-0.3,0.1-0.7,0-1.1-0.2c-0.4-0.1-1.2-0.4-1.4-0.5c-0.3,0-1.2-0.5-1.2-0.5s-0.4-0.2-0.1-0.2
		c0.4,0,0.2-0.2,0.6-0.5c0.4-0.3,0.6-1,0.6-1s0-0.6,0.4-0.8c0.3-0.2,1.5-0.1,1.8-0.1c0.2,0,0.4-0.3,0.2-0.5
		c-0.2-0.3-0.9-0.7-1.7-0.9c-0.8-0.3-0.5-0.3-0.5-0.3s-0.3-0.3,0.2-0.7c0.4-0.4,0.4-1,0.3-1.2c-0.1-0.3-1.1-0.8-1.4-1.1
		c-0.3-0.2-0.3,0.1-0.7-0.3S42.3,17.1,42,17c-0.3-0.1-0.5-0.3-0.6-0.4c0-0.2-0.4-1-0.4-1.2c0-0.2-0.6-0.3-0.8-0.3
		c-0.2,0-0.6,0.1-0.7,0.2c-0.1,0.1-0.5,0.3-0.5,0.3s-0.3-0.2-0.7-0.2s-1.1,0.4-1.3,0.4c-0.2,0,0,0.5,0,0.5l0,0.3
		c0,0-0.3-0.1-0.5,0.2c-0.2,0.3-0.8,0.7-1,0.9c-0.2,0.2-0.3,0.7-0.4,1.2c-0.1,0.5-0.7,2.2-1,2.4c-0.2,0.2-0.2,0.4,0,0.7
		c0.1,0.2,0.4,0.4,0.4,0.4s0,0.3,0.1,0.7c0.1,0.4,0.4,1.8,0.5,2.6c0.1,0.8-0.5,0.7-0.8,0.7s-0.4,0.3-0.2,1c0.2,0.7,1.1,0.7,1.3,0.8
		c0.2,0.1,0.3,0.4,0.3,0.4s0.1,0.5,0.3,0.9c0.2,0.4,0.9,1.4,1.5,2.3c0.6,0.9,0,1.4-0.3,1.5c-0.3,0.1-0.2,0.4,0,0.9
		c0.2,0.5,1.1,0.7,1.1,0.7s-0.1,0.6-0.4,1.3c-0.3,0.7-0.9,1.4-1.7,1.8c-0.8,0.4-1.5,1.2-1.8,1.6c-0.3,0.4-0.6,1.5-0.8,1.8
		c-0.3,0.3-0.5,0-0.7-0.3c-0.2-0.3-0.3-1.6-0.2-2c0-0.4,0.4-2.3,0.6-3.2c0.2-1,0.3-2.5,0.4-3.2c0-0.7,0.2-1.4,0.1-2.8
		c0-1.4-0.2-2.3-0.4-3.2c-0.3-0.9-0.7-1.8-1-2.1c-0.3-0.3-1.1-0.7-1.7-0.7c-0.6,0-1.1,0.5-1.5,1s-0.5,1.6-0.4,1.8
		c0,0.2,0,0.4-0.2,0.7C28.2,27.7,28.1,28.3,28.1,29z M111.3,28.3c0.1,0.3,0.3,0.5,0,0.6c-0.2,0.1-0.5,0.1-0.5,0.4
		c0,0.3-0.2,1.2-0.3,1.2c-0.1,0-0.1-0.7,0-1c0.1-0.3-0.2-0.9-0.4-0.8c0,0,0.1-0.5,0.5-0.6C110.9,28,111.2,28,111.3,28.3z M109,25.3
		c0.6-0.3,1.4-0.3,1.5,0c0.2,0.4,0.4,0.8,0.2,0.9s-0.3-0.1-0.4-0.3c-0.1-0.2-0.4-0.7-0.7-0.5c-0.3,0.3-1.2,0.5-1.2,0.8
		c0,0.3-0.2,0.6-0.2,0.8c-0.1,0.1-0.3,0-0.3,0S108.4,25.6,109,25.3z M106.8,42.4c0.4-0.1,1.1-0.4,1.3-1.1c0.2-0.6,0.4-1.9,0.2-2.9
		c-0.2-1-0.4-2-0.5-2.9l-0.1-0.9c0,0-0.1-0.9,0.1-0.8c0.2,0.1,0.6,2,0.8,2.9c0.2,0.9,0.6,3.4,0.5,3.9c-0.1,0.5-0.4,1.8-0.9,2
		c-0.5,0.2-1.2,0.5-1.5,0.4C106.4,42.8,106.5,42.5,106.8,42.4z M37.6,56c0-0.1,0.2-0.2,0.5-0.2c0.3,0,0.5,0.1,0.5,0.2
		c0,0.1-0.2,0.2-0.5,0.2C37.8,56.2,37.6,56.1,37.6,56z M36.8,65.7c-0.3-0.3,3.7,0,3.9,0.2C40.7,65.9,37,66,36.8,65.7z M96.4,66.6
		c-1.2,0.3-5.4-0.9-5.4-0.9C91.3,65.7,97.6,66.4,96.4,66.6z M103.2,59.2c0.5,0.4,0,0.3,0,0.3s-0.1,0.4,0,0.5
		c0.2,0.1-0.1,0.3-0.3,0.3c-0.2,0-0.1,0.4,0.2,0.4c0.3,0,0.7,0.2,1.1,0.2c0.4,0.1,0.8,0.5,1.1,0.3s0.2-0.3,0.2-0.4s0.4-0.2,0.3-0.4
		c-0.1-0.2-0.4-0.3-0.2-0.4c0.1-0.1,0.9,0.1,0.9,0.5c-0.1,0.4-0.4,0.4-0.4,0.7c0,0,0,0.1,0,0.1c0,0,0,0,0,0c0,0,0,0,0,0.1h0
		c0,0.5-0.1,1.3,0,1.6c0.2,0.3,0.4,0.9,0.7,1.2c0.2,0.3,0.1,1.1-0.2,1.3c-0.3,0.2-1.2,0.5-1.4,0.5c-0.2,0,0.6-0.2,0.5-0.5
		c-0.1-0.3-0.3-0.8-1.4-1c-1.2-0.2-2-0.6-5.4-0.6c-3.3,0-3.2,0-6,0.5c-2.8,0.4-5.7,1.7-7.2,2.1c-1.4,0.4-4.2,1.5-7.4,2
		C74.9,68.7,73,69,70.5,69c-2.6,0-5.3,0.1-9.3-0.8c-4-0.9-8.1-2.3-10.2-3.2s-3-1.4-6.1-1.7c-3.1-0.3-4.3-0.4-6.6-0.1
		c-2.3,0.2-2.4,0.5-2.7,0.5s-2,0.2-2.5,0.4c-0.5,0.3-0.7,0.6-0.7,0.7c0,0.2,0,0.3,0.1,0.4c0,0-0.9,0-1.4-0.7c-0.5-0.7-0.9-0.1,0-1.2
		c0.8-1.1,1.2-1.6,1.1-2.3c0,0,0,0,0,0c-0.1-0.7-0.3-0.8-0.5-0.9c-0.2-0.2,0.1-0.5,0.5-0.7c0.4-0.2,1.6-0.5,2.4-0.6
		c0.8-0.1,2.1-0.3,2.5-0.4c0.4-0.1,3.2-0.2,3.9-0.2c0.6,0,4.6,0.3,6.5,0.7c1.9,0.4,4.5,1.3,5.5,1.7c0.3,0.1,0.7,0.3,1.1,0.5h0
		c1,0.4,2.1,0.9,3,1.2c1.3,0.4,4.5,1.5,7.2,1.8c2.7,0.2,3.1,0.3,5.8,0.3c2.7,0,6.2-0.2,9.5-1.1c1.9-0.6,4.1-1.3,6.2-2.1v0
		c1.5-0.5,3-1,4.1-1.4c2.8-0.9,7.2-1.2,8.2-1.2C99.2,58.6,102.6,58.8,103.2,59.2z M41.1,53.8c-0.6-0.4-0.6-0.4-1.3-0.3
		c-0.7,0.1-2.1,0.2-2.1,0.2s-0.2-0.2-0.3-0.3c0-0.1-0.2-0.4-0.3-0.8c-0.2-0.5-0.4-1-0.5-1.1c-0.1-0.2,0-0.6,0.2-0.7
		c0.2-0.2,0.7-0.2,1.1-0.2c0.4,0,0.9,0.2,1.3-0.1c0.4-0.3,0.8-0.7,0.6-0.9c-0.2-0.2-0.4-0.5-0.3-0.7s0.7-0.9,0.9-1.4
		c0.2-0.4,0.7-1.4,0.7-1.7c0-0.3,0.2-0.3,0.4-0.4c0.2,0,0.6-0.1,0.7,0c0.2,0.1,0.5,0.7,0.5,1c0,0.3-0.1,0.8-0.2,1.1
		c-0.1,0.2-0.3,1.1,0.1,1.3c0.4,0.2,0.2,0.5,1.2,0.5c0.9,0,1.2-0.3,1.1-0.5s-0.3-0.2-0.6-0.2c-0.2,0-0.7-0.1-0.9-0.3
		c-0.2-0.2,0-0.9,0.2-1.2c0.1-0.4,0.1-0.7,0.3-0.8c0.2-0.2,0.7-0.3,0.5-0.8c-0.2-0.5-0.6-0.7-0.9-0.7c-0.3-0.1-1.1-0.2-1.4-0.1
		c-0.3,0.1-0.7,0-0.7-0.3c0-0.1,0-0.3,0-0.5c0-0.2,0-0.4-0.1-0.6c-0.1-0.2,0.7-2.3,1-2.5c0.3-0.1,1.8-0.3,2.3,0
		c0.5,0.2,1.2,0.7,1.2,1.1s-0.4,1-0.5,1.1c-0.2,0.1,0,0.4,0.1,0.5c0.1,0.1,0,0.2-0.1,0.3l0,0c0,0,0,0,0,0c0,0.2,0.1,0.3,0,0.4
		c-0.1,0.1-0.3,0.4-0.1,0.5c0.2,0.1,0.3,0.2,0.2,0.4c-0.2,0.2-0.3,0.5-0.3,0.6s-0.1,0.5,0.1,0.6c0.2,0.1,0.7,0.2,0.8,0.2
		c0.2,0,0.6-0.3,0.6-0.6c0-0.2,0.1-1.2,0.1-2.2c0.1-0.8,0.1-1.8,0.1-1.8c0-0.2-0.3-1.3-1-1.6c-0.7-0.4-1.1-0.5-2.2-0.5
		c-1.1,0-1.4,0-1.4,0s1.1-1,2.2-2.2c1.1-1.2,2.2-2.6,2.3-2.7c0.2-0.1,1.1,0.7,1.1,0.7s-0.2,0.2-0.2,0.5c0,0.2,0,0.8,0,0.8
		s0,0.3-0.4,0.5c-0.4,0.2-0.9,0.5-0.9,0.5s-0.2,0-0.1,0.7c0.1,0.6,1.6,4.3,1.9,5.2h0c0,0,0,0,0,0c0,0,0,0,0,0h0c0,0,0,0.1,0,0.1
		c0.1,0.2,0.2,0.4,0.7,0.4c0.4-0.1,1-0.4,1.2,0c0.2,0.4,0.6,1.1,0.6,1.1s-0.6-0.2-1-0.2c-0.4,0-1.5,0-2.4,0.8
		c-0.9,0.8-1.4,1.3-1.8,2.5c-0.4,1.2-0.5,2.3-0.5,2.5c0,0.2-0.3,1-0.6,1.1c-0.1,0.1-0.4,0.2-0.6,0.5l0,0c0,0-0.1,0.1-0.1,0.2h0
		c-0.1,0.2-0.1,0.3-0.1,0.5c0.2,0.5,1.5,2.3,2.8,3c1.2,0.7,3.2,1.5,3.6,1.7c0.4,0.2,0.7,0.2,0.7,0.5c0,0.4-0.7,0.3-0.9,0.3
		s-3.3-0.7-4.3-0.8c-1.1-0.1-3.1-0.4-4.1-0.4h-2.4c0,0,1.8-0.3,2-0.4c0.2-0.1,0.7-0.3,0.7-1.2C41.6,55,41.7,54.2,41.1,53.8z
		 M55.4,35.4c-0.1-0.4-0.2-0.6,0-0.8c0.1-0.2,0.3-1.1,0-1.6c-0.4-0.4-1.1-0.9-1.3-0.9c-0.2-0.1-0.3-0.3-0.2-0.5
		c0.2-0.2,0.8-3.3,1.7-5.1c1-1.9,2.9-4.7,5.7-6.3c2.8-1.6,5.7-2.8,8.8-2.7c3.3,0,5.9,0.9,7.5,1.7c1.3,0.6,4.5,2.8,6.1,5.5
		c1.6,2.7,2.2,4.8,2.3,5.7c0.2,0.9,0.4,1.2,0.5,1.2c0.2,0,0.3,0.1,0.2,0.2c-0.2,0.1-0.9,0.5-1.1,0.7s-0.6,0.5-0.6,0.9
		c0,0.3-0.2,0.7-0.1,0.9c0.1,0.2,0.2,0.5,0.1,0.8c-0.1,0.3-0.2,1.4,0.3,1.6c0.5,0.2,0.7,0.1,0.7,0c0-0.1,0.3-0.1,0.4,0
		c0.2,0.2,1,0.3,1.2,0.2c0.3-0.1,0.8-0.3,1.1-0.3c0.3,0,0.9,0.1,1.2,0c0.3-0.2,0.8-0.1,0.8-0.1s-0.3,2.4-0.8,3.5
		c-0.5,1.1-1.1,2.8-1.6,3.6c0,0.1-0.1,0.1-0.1,0.2v0c-0.5,0.7-0.8,1.2-0.6,1.3c0.2,0.1,0.5,0.4,0.3,0.5c-0.2,0.1-1.4,0.5-1.6,1
		c-0.2,0.4-0.6,1.4-0.6,1.8v0.6c0,0-0.2-0.1-0.3-0.4s-0.4-0.6-0.5-0.4c-0.2,0.2-2.1,1.7-2.4,1.9c-0.3,0.2-1.4,1-1.5,1.1
		c-0.2,0.1-0.2,0.2-0.9-0.1c-0.6-0.3-2.7-1.3-2.8-1.4c-0.1-0.1-0.1-0.3,0.1-0.4c0.2-0.1,2.3-1.2,4.1-2.9c1-0.9,1.8-1.8,2.5-2.6h0
		c0.7-0.9,1.2-1.7,1.5-2.4c0.6-1.2,1.2-3,1.3-3.4c0-0.4-0.4-0.7-0.6-0.6c-0.2,0.1-0.5,0.2-0.7,0.9c-0.2,0.7-1.5,3.5-2.8,5.1
		c-0.1,0.1-0.2,0.2-0.3,0.4h0c-1.2,1.4-2.7,2.7-3.9,3.5c-1.4,0.9-2.8,1.5-3.2,1.6c-0.4,0-0.5,0.2-0.7,0c-0.2-0.2-0.5-0.5-1-0.4
		c-0.5,0-2.3,0.1-2.5,0.2c-0.2,0.1-2.8,0.1-3.2,0c-0.3,0-0.7-0.2-0.8-0.1c-0.2,0.1-0.5,0.2-0.7,0.4s-0.4,0.5-0.5,0.4
		c-0.2-0.1-2.4-0.8-4.1-1.7c-1.2-0.7-2.5-1.5-3.4-2.5c-0.3-0.3-0.7-0.9-1.1-1.3c-0.6-0.8-1.2-1.6-1.3-1.8c-0.2-0.3-0.4-0.7,0-0.9
		c0.4-0.2,0.9-0.3,0.7-0.8c-0.1-0.5-0.9-2.5-1-2.7c-0.1-0.2-0.4-0.5-0.5-0.5c-0.1,0.1-0.5,0.3-0.7,0.3c-0.2,0-1.1,0-1.1,0
		s-0.4,0.1-0.3,0.5c0,0.4,0.2,0.9,0.2,1.2c0,0-0.9-1.6-1.1-1.8c-0.2-0.2-0.5-0.5-0.5-0.5s-0.1-0.2,0.1-0.2c0.2,0.1,1.1,0.5,1.4,0.4
		c0.3-0.1,0.7-0.1,0.9-0.3c0.2-0.2,0.3-0.1,0.4,0s0.5,0.2,0.7,0.1C55.2,36.7,55.5,35.8,55.4,35.4z M86.8,33.5c0.1,0,0.1,0.1,0.1,0.2
		c0,0.1-0.1,0.2-0.1,0.2c-0.1,0-0.1-0.1-0.1-0.2C86.7,33.6,86.7,33.5,86.8,33.5z M92.3,36.4c-0.2-0.2-0.5-0.4-0.4-0.6
		c0.1-0.1,1.1-0.6,1.3-0.8c0.2-0.2,0.5,0,0.6,0.1c0.1,0.2,2.1,2.7,2.5,3c0.4,0.4,1.4,1.5,1.6,1.6c0.1,0.1,0,0.1-0.3,0.1H95
		c0,0-1,0.5-1.2,1c-0.2,0.4-0.6,0.7-0.5,1.4c0,0.3,0.1,0.8,0.1,1.3c0,0.6,0.1,1.2,0.1,1.4c0,0.5-0.3,1.2-0.3,1.4c0,0.2,0,0.5,0,0.5
		s-0.7-1.2-1.7-1.4c-1-0.2-1.9-0.4-2.4-0.4c0,0,0.5-0.5,1.1-1.5h0c0.4-0.7,0.9-1.6,1.1-2.7l0.6-2.5C91.9,38.5,92.6,36.6,92.3,36.4z
		 M100.5,50.5c0.3,0.1,0.9,0.4,1.5,0.2c0.6-0.1,1.3,0.1,1.3,0.4c0,0.2-0.2,0.8-0.4,1.3h0c-0.1,0.3-0.2,0.7-0.3,0.8
		c-0.1,0.3-0.2,0.6-0.7,0.5c-0.5,0-1.8-0.2-2.2-0.2c-0.3,0-1.1,0.3-1.3,0.8c-0.2,0.4-0.3,1.4-0.2,1.8c0.1,0.4,0.2,0.9,0.8,1.1
		c0.5,0.2,1.4,0.4,1.4,0.4s-2.5-0.1-4.5,0c-2,0.1-4.3,0.6-5.2,0.9c-0.8,0.3-0.8,0.3-1.7,0.2c0,0,4.9-2,5.9-3.7
		c0.7-1.2,1.1-2.1,1-2.6c0-0.2-0.1-0.3-0.3-0.4c-0.5-0.3-1.1-0.4-1.4-0.4c-0.3,0-0.8-1-0.7-1.4c0-0.3,0-0.5,0.2-0.4
		c0.1,0.1,0.5,0.3,1-0.1c0.5-0.4,1-0.4,1.4-0.4s1.4-0.1,1.3-0.8c-0.1-0.7-0.6-1.8-0.1-2.3c0.5-0.5,0.7-0.8,1.1-0.6
		c0.4,0.2,0.5,0.8,0.8,1.4c0.3,0.5,0.9,1.6,1.1,1.8c0.1,0.2,0.1,0.6-0.1,0.7C100,49.6,100.1,50.4,100.5,50.5z M86.1,58.4
		c-0.7,0.1-2.7,0.4-3.1,0.9s-0.7,1-0.7,1.4c0,0.2,0,0.4-0.1,0.5l-0.2,0c0,0,0,0-0.1,0c-0.2-0.1-0.5-0.5-0.1-1.3
		c0.3-0.8,0.1-0.9,0.5-0.9s1.1-0.5,1.2-0.7c0.1-0.2,0.2-0.5,0-0.6c-0.2-0.1-0.2-0.2,0.1-0.4c0.3-0.2,0.5-0.4,0.3-0.6
		c-0.2-0.2-0.1-0.2,0.1-0.4c0.2-0.2,0.3-0.6,0-0.6c-0.3,0-0.5,0-0.8,0.2c-0.3,0.1-0.7,0.2-0.7,0.2l0.9-0.7c0,0,0.8,0,1-0.2
		c0.2-0.2-0.2-0.6-0.5-0.4c-0.3,0.1-0.4,0.3-0.6,0.4c-0.2,0-0.2-0.3,0.1-0.4c0.3-0.1,2.7-0.8,4-1.3c0.7-0.2,1.4-0.6,2-0.9h0
		c0,0,0.1,0,0.1,0c0,0,0,0,0.1,0l0,0c0.5-0.3,0.9-0.5,1-0.6c0.2-0.2,0.2,0,0.4,0.1c0.1,0.1,0.5,0.3,0.9,0.3s0.6,0,0.6,0
		s0.1,0.1,0.1,0.2c0,0.1,0,0.2,0,0.2c0,0.3-0.3,0.7,0,0.7c0.3,0,0.4-0.2,0.4-0.4c0-0.2,0-0.2,0.2-0.4c0,0,0.1-0.1,0.1-0.1
		c0.1-0.1,0.1-0.1,0.3,0v0c0,0,0,0,0,0c0.3,0.1,0.6,0.2,0.8,0.3c0.2,0.1,0.3,0.4,0.1,0.5c-0.2,0.1-0.5-0.3-0.7,0.1
		c-0.2,0.4-0.6,0.8-0.4,1c0.2,0.1,0.6,0.1,0.5,0.3c-0.1,0.1-1.4,1.7-3.2,2.5C88.8,57.8,86.8,58.3,86.1,58.4z M86.9,59.4
		c0,0.1-0.1,0.2-0.2,0.2c0,0,0,0-0.1,0c-0.1,0-0.2-0.1-0.2-0.1c0,0,0-0.1,0-0.1c0-0.1,0.1-0.1,0.2-0.1
		C86.8,59.2,86.9,59.3,86.9,59.4z M85,60.1C85,60.1,84.9,60.1,85,60.1c0,0.1-0.1,0.2-0.3,0.2c-0.2,0-0.3-0.1-0.3-0.2c0,0,0,0,0,0
		c0,0,0-0.1,0.1-0.1c0.1,0,0.1,0,0.2,0c0,0,0.1,0,0.1,0C84.9,60,85,60,85,60.1z M83.9,60.6c0,0.1-0.1,0.2-0.3,0.2c0,0-0.1,0-0.1,0h0
		c-0.1,0-0.2-0.1-0.2-0.2c0-0.1,0.1-0.2,0.2-0.2c0,0,0.1,0,0.1,0c0,0,0,0,0,0C83.8,60.4,83.9,60.5,83.9,60.6z M81.1,58.2
		c0.2,0.3,0,0.9-0.1,1.2c-0.1,0.3-0.5,1-0.5,1.4c0,0.2,0,0.3,0.1,0.5h0c0,0.2,0.1,0.4,0.1,0.5c0,0.2-3.2,1.2-5.2,1.4
		c-2,0.3-3.5,0.5-5.8,0.5c-2.4,0-5.7-0.6-7-0.8c-1.3-0.2-3.7-0.8-4.7-1.2c-0.5-0.2-0.7-0.3-0.9-0.4h0c-0.2-0.1-0.2-0.2,0-0.4
		c0.3-0.3,0.5-1,0.6-2.1c0-1.1,0.3-1.5,0.7-1.7c0.4-0.3,0.7-0.2,0.7-0.8c0-0.6,0.2-1.2-1.1-1.8c-1-0.6-3-1.5-4-2h0
		c-0.2-0.1-0.3-0.1-0.5-0.2c-0.8-0.3-1.6-0.5-2-0.6c-0.4-0.1-0.9-0.5-0.8-0.8c0.1-0.3,0.2-0.7,0.6-0.9c0.4-0.2,0.9-0.5,1.2-0.8
		c0.3-0.3,0.5-0.8,0.5-0.8s1.7,1.7,2.8,2.6c0.5,0.4,1.4,1,2.2,1.6h0c0,0,0.1,0,0.1,0.1c0,0,0.1,0,0.1,0.1h0c0.9,0.6,1.8,1.1,2.7,1.5
		c1.8,0.7,3.7,1.3,4.4,1.4c0.7,0.1,1.1,0.2,1.1,0.5c0.1,0.4,0.2,1-0.3,1.1c-0.5,0.1-0.9,0-0.9,0.3c0,0.3-0.1,1,0.1,1.1
		c0.2,0.2,3.4,2.6,3.6,2.6c0,0,0,0,0,0h0c0.2,0.1,0.4,0.2,1,0.2c0.6,0,0.6,0.1,1.1-0.2c0.1-0.1,0.2-0.1,0.3-0.2
		c0.8-0.6,3.2-2.4,3.3-2.6c0.1-0.2,0.3-0.7,0.1-0.9c-0.1-0.3-0.5-0.5-0.7-0.5s-0.5,0.3-0.5-0.3c0-0.5-0.2-1.1,0.5-1
		c0.7,0,1,0,2.1,0.5c1.1,0.5,2,1.1,2.3,1.1c0.3,0,0.6,0.1,0.9-0.3c0.3-0.4,3-4.2,3.2-4.5c0,0,0,0,0-0.1h0c0,0,0,0,0,0
		c0-0.1,0-0.1,0-0.1c0.1-0.2,0.3-0.5,1-1c1.2-1,2.2-1.6,2.1-2.2c0,0,0.3,0.3,0.5,0.5c0.2,0.2,1,0.8,1.5,1.2c0.5,0.4,0.8,0.8,0.7,1
		c-0.1,0.2-0.4,0.4-0.8,0.6c-0.2,0.1-0.6,0.3-0.8,0.3c-0.5,0.2-2.7,0.8-3.6,1c-0.9,0.2-1.6,0.9-1.9,1.2c-0.3,0.3-1,1.1-0.9,1.4
		C80.4,56.7,80.9,57.9,81.1,58.2z M56.4,59.6c0.1,0.3-0.1,1-0.6,1c-0.5,0.1-0.4-0.1-0.2-0.4c0.2-0.3,0.4-0.6,0-0.9
		c-0.4-0.3-0.8-0.9-0.8-0.9s0.7,0.4,0.8,0.3c0.2-0.1,0.4-0.3,0.3-0.7c0-0.4,0-0.7,0.1-0.8c0.1-0.1,0.1-0.3,0.1-0.3s0.2-0.2,0.3-0.4
		c0.1-0.2,0.2-0.7-0.2-1c-0.4-0.4-0.6-0.6-0.8-0.4c-0.1,0.2-1,0.3-1,0.3s0,0.4,0,0.6c0,0.1-0.3,0.2-0.3,0.2s0.1,0.6,0,0.8
		c-0.2,0.2-0.6,0-0.7,0.3c-0.1,0.2,0,0.5,0.2,0.6c0.2,0.1,0.3,0.3,0.3,0.3s0-0.1-0.4-0.1c-0.4-0.1-4.8-1.6-5.9-2.2
		c-1.1-0.6-2.1-1.4-2.1-1.5c0-0.1,0.4,0.1,0.7,0.1c0.3,0,0.3-0.2,0.4-0.2c0.1,0,0.3-0.1,0.4-0.2c0.1-0.1,0.1-0.2,0.1-0.2
		s0.4,0,0.4-0.2s-0.3-0.5-0.3-0.6c0-0.1,0.4,0.1,0.7,0.1c0.2,0,0.4-0.1,0.6-0.3h0c0.1-0.1,0.2-0.2,0.2-0.2c0-0.3-0.7-1-1-1.2
		c-0.3-0.2-0.6-1.1-0.7-0.9c-0.2,0.2-0.3,0.3-0.3,0.6c-0.1,0.3-0.3,0.3-0.3,0.5c0,0.2,0.1,0.7,0.2,0.8c0.1,0.1-0.5,0.3-0.7,0.5
		c0,0,0,0.1,0,0.1c-0.1,0.3-0.6,1-0.5,1.2c0,0-0.7-0.5-0.4-0.8c0.1-0.1,0.3-0.3,0.4-0.4c0.1-0.1,0.2-0.2,0.3-0.3c0,0,0,0,0,0l0,0
		c0.1-0.1,0.1-0.2,0.2-0.3c0.1-0.7,0.4-1.4,0.5-1.9c0.1-0.6,0.2-2,0.5-2.1c0.3-0.2,0.4,0,0.4,0.3c0,0.3-0.3,0.9,0.4,1.9
		c0.6,1,1.1,1.4,2.8,2.2c0.1,0,0.2,0.1,0.3,0.1h0c0,0,0,0,0,0c0,0,0,0,0.1,0h0c1.8,0.8,5,2,5.3,2.1c0.3,0.1,1.5,0.6,1.5,1.2
		c0,0.6-0.8,1.4-0.8,1.9C56.5,58.2,56.3,59.3,56.4,59.6z M53.1,58.7c-0.1,0.2-0.6,0.6-1.1,0.6c0,0,0.1-0.4,0.5-0.6
		C52.8,58.5,53.1,58.5,53.1,58.7z M51,48.6c0.2,0-0.8,0.8-1.2,1.3c-0.3,0.4-1,1.2-1.2,0.6c-0.2-0.6,0.2-1.2,0.3-1.5
		c0.1-0.3,0.4-1.1,0.5-1.5c0,0,0.4,0.4,0.7,0.6C50.3,48.4,50.8,48.6,51,48.6z M50.7,46.5c0,0,1.2,0.5,1.1,0.8
		C51.7,47.6,50.8,46.8,50.7,46.5z M67.7,58.2v-2c0,0,0.1-0.4,0.3-0.4c0.2,0,3.6,0,3.6,0s0.3,0.2,0.3,0.4c0,0.2,0,2,0,2
		s-0.1,0.3-0.3,0.4c-0.2,0.2-1.3,1.2-1.4,1.3c-0.1,0-0.8,0-0.8,0S67.7,58.4,67.7,58.2z M88.2,47.4C88.9,47.6,88.2,47.5,88.2,47.4
		c0,0.1-0.2,0.3-0.5,0.1c-0.2-0.2-0.2-0.2-0.5,0c-0.2,0.1,0-0.3,0.1-0.5c0.2-0.2,0.4-0.3,0.6-0.4C88.2,46.6,87.4,47.2,88.2,47.4z
		 M87.2,48.6c0.3,0.2,0.6,0.1,1.1,0c0.5-0.1,1.3-0.5,1.3-0.5s0.1,0.3,0.1,0.7s0.4,1.3,0.5,1.9c0.1,0.6-0.1,0.7-0.6,0.8
		c-0.4,0.1-0.6-0.6-1-1.1c-0.4-0.5-1.6-1.3-2-1.6c-0.3-0.3,0.1-0.7,0.1-0.7C86.9,48.3,86.9,48.4,87.2,48.6z M81.8,56.2
		c0.3,0,0.8,0.1,0.5,0.4c-0.2,0.2-0.1,0.6,0,0.6c0.2,0,0.4,0.3,0.2,0.4c-0.2,0.1,0.1,0.4,0.1,0.4s-0.2,0.5-0.6,0.5
		c0,0-0.2-1.4-0.4-1.9C81.4,56.2,81.5,56.1,81.8,56.2z M91.7,50.6c0,0,0.4-1.3,0.4-1.8s0-0.8,0-0.8s0.3,1,0.4,1.8
		c0.1,0.8,0.2,1.3,0.2,1.3s-0.1,0-0.3,0c-0.2-0.1-0.1-0.2-0.3-0.4C91.9,50.6,91.7,50.6,91.7,50.6z M98.8,44c0,0.5-0.5,0.6-0.5,0.6
		s-1.1,0-1.7,0.1c-0.7,0.1-0.8,0.6-0.9,0.9c-0.1,0.3,0.6,0.6,0.6,0.9c0,0.3,0.2,1,0.3,1.5c0,0.5-0.8,0.3-1.4,0.4
		c-0.6,0-1.1,0.7-1.3,1c-0.2,0.3-0.2-0.1-0.4-0.4c-0.2-0.3-0.1-1.9-0.1-1.9s0.1,0.1,0.3,0.3c0.2,0.2,0.4,0,0.4,0s0.5-0.5,0.5-0.7
		s0.1-0.1,0.3,0c0.2,0,0.2-0.3,0.2-0.3s0-0.5-0.1-0.8c-0.1-0.2-0.3-0.4,0-0.5c0.2-0.1,0.2-0.3,0-0.4c-0.1-0.1-0.2-0.3,0-0.4
		c0.1-0.1,0-0.2-0.1-0.4l0,0h0c0-0.1,0-0.1,0-0.2c0-0.3,0.1-0.1,0.1-0.5c0-0.4-0.4-0.5-0.5-1c0-0.4,0.4-0.8,0.8-1
		c0.4-0.2,1.4-0.3,2.2-0.3c0.8,0,0.7,0.4,1,0.9c0.3,0.4,0.4,1.5,0.4,2.1C98.8,43.8,98.8,44,98.8,44z M71.7,49.5
		c-0.6,0.3-2.5,0.2-2.9,0.2c-0.4-0.1-0.9-0.5-0.6-0.7c0,0,3.2-0.4,3.5-0.2C72,49.1,72.3,49.3,71.7,49.5z M52.2,41.2
		c0.8-0.1,1.6-0.9,1.3-1.8c0,0,0.9,2.1,2.5,4.3h0c0,0,0,0,0,0.1c0,0,0,0,0,0.1h0c1.2,1.6,2.9,3.4,4.9,4.5c4.8,2.6,5.4,2.5,8.2,2.5
		c2.8,0,4.4-0.4,4.6-0.4c0.2-0.1,1.2-0.1,1.8,0.1c0.8,0.3,3.3,1.5,4.3,1.9c0,0,0,0,0,0c0,0,0.1,0,0.1,0h0c0.5,0.3,1,0.5,1,0.5
		s0.3,0.2,0,0.8c-0.3,0.6-1.3,1.9-1.3,1.9s-0.2,0.4-1,0.1c-0.8-0.3-2.6-1.5-3.2-1.6C75,54,73.7,54,73.1,54.2
		c-0.5,0.2-2.2,0.2-3.3,0.2c-1.2,0-4.4-0.2-6.9-1.2c-0.5-0.2-1-0.4-1.6-0.7c-2-0.9-4.2-2.2-6.1-4.2c-1.3-1.4-2.5-3.1-3.5-4.6v0
		c-0.8-1.3-1.3-2.5-1.5-3.3c-0.4-1.7-0.6-3-0.3-2.6c0.4,0.3,0.6,2.1,0.9,2.5C51.1,40.6,51.5,41.3,52.2,41.2z M101.8,56.4
		c-0.2,0-0.4-0.1-0.4-0.3c0-0.2,0.2-0.3,0.4-0.3c0.2,0,0.4,0.1,0.4,0.3C102.2,56.3,102,56.4,101.8,56.4z M102.8,38.4
		c0.5,0.4,2.2,1.2,2.3,2.2c0.2,0.9,0.2,1.3-0.1,1.9c-0.3,0.6,0,0.9-0.3,1.1c-0.1,0.1-0.2,0.1-0.2,0.2h0c-0.1,0.2-0.1,0.4-0.1,0.7
		c-0.1,0.5-0.2,1.3-0.2,1.3s-0.2,0.3-0.4,0.3c-0.2-0.1-0.8,0.4-0.5,0.9c0.3,0.5,0.8,1.9,1.6,2.2c0.8,0.3,1.2,0.5,0.9,0.6
		c-0.3,0.2-0.4,0.6-0.2,0.8c0.2,0.2,0.5,0.4,0.2,0.7c-0.1,0.1-0.4,0.7-0.6,1.1h0c0,0,0,0.1,0,0.1c0,0,0,0,0,0h0
		c-0.2,0.3-0.3,0.7-0.3,0.9c0,0.5,0.1,1.1,0.1,1.1s0.1,0.1-0.2,0.3c-0.2,0.2-0.5,0.4-0.7,0.8s-0.3,0.8-0.6,0.8
		c-0.3,0-0.5-0.2-0.6-0.4c-0.1-0.2-0.6-0.6-1-0.6c-0.4,0-0.6-0.3-0.7-0.5c0,0,1.8-0.1,2-0.6c0.2-0.4,0.4-1.3,0.7-1.7h0
		c0-0.1,0.1-0.1,0.1-0.1c0.3-0.3,0.6-0.9,0.2-1.5c-0.4-0.6-0.9-0.5-1.5-1c-0.5-0.5-0.4-0.9-0.8-1.1c-0.5-0.1-0.9-0.2-1.2-1.1
		c-0.4-0.8-0.8-1.5-0.5-2c0.3-0.5,0.4-0.5,0.3-0.8c-0.1-0.3-0.4-0.6-0.2-0.8c0.2-0.2,0.3-0.1,0.3-0.4v0c0,0,0-0.1,0-0.2
		c-0.1-0.5-0.4-0.4,0-0.8c0.4-0.5,0.2-0.3,0.2-1c0-0.7,0-0.5-0.3-1.1c-0.3-0.6-0.2-1-0.5-1.3c-0.4-0.3-0.9-0.2-0.9-0.2
		s-0.3,0.1-0.5-0.4c-0.2-0.5-0.4-1.3-0.6-1.4c-0.2-0.1,0-0.5-0.2-0.8c-0.2-0.3-0.5-0.8-0.4-1.2c0.2-0.4,0.4-1.2,0.8-1.3
		c0.4-0.1,1.1-0.2,1.7,0.1c0.6,0.2,1.1,0.5,1.3,1.3C101.5,36.4,102.3,38,102.8,38.4z M101.2,31.7c0,0,0.6,0,0.6,0.2
		c0,0.2-0.1,0.6-0.3,0.5C101.3,32.4,101.2,31.7,101.2,31.7z M104.2,20.9c0.1,0.2,0,0.4-0.1,0.2c-0.1-0.2-0.2-0.9-0.2-0.9
		S104.1,20.7,104.2,20.9z M104,23.5c0.2-0.4,0.4-0.5,0.5-0.2c0.1,0.4,0.4,0.9,0.2,1.1c-0.2,0.2-0.5,0.2-0.8,0.2
		c-0.4,0-0.6-0.4-0.6-0.6C103.2,24.1,103.8,23.9,104,23.5z M96.6,23.9c0-0.1,0.2-0.2,0.4-0.2c0.2,0,0.4,0.1,0.4,0.2
		c0,0.1-0.2,0.2-0.4,0.2C96.7,24.1,96.6,24,96.6,23.9z M95,28.5c0.1-0.1,0.4-0.4,0.3-0.6c0,0,0.9,0.1,1.3,0.1
		c0.5-0.1,1.1-0.3,1.1-0.5c0-0.3-0.4-0.4-0.2-0.6c0.1-0.2,0.4-0.3,0.6-0.6c0.1-0.3,0.2-0.3,0.6-0.7c0.4-0.4,0.1-0.4,0.6-0.7
		c0.5-0.4,0.9-0.6,0.8-0.9c-0.1-0.3-0.3-0.9-0.6-1c-0.3-0.1-0.3-0.3-0.2-0.5s0.2-0.7-0.2-0.9c-0.4-0.2-0.4-0.4-0.8-0.4
		s-0.5-0.1-0.7-0.3c-0.2-0.2-0.4-0.4-0.5-0.2s-0.3,0.2-0.5,0.2s-0.3-0.1-0.2-0.4c0.1-0.2,0.1-0.2,0.1-0.5s-0.1-0.4-0.1-0.4
		s0.4,0.1,0.5,0c0.1-0.1,0.5-0.5,0.6-0.6c0.1-0.1,0.6-0.1,0.6-0.1s0,0.4,0,0.6c-0.1,0.2-0.3,0.6,0.1,0.6c0.3,0.1,1.1,0.1,1.3-0.1
		c0.3-0.2,0.3-0.4,0.5-0.6c0.2-0.1,0.4-0.4,0.2-0.4c-0.2-0.1-0.8-0.2-0.9-0.5c-0.2-0.3-0.2-0.3,0.1-0.4c0.2-0.1,0-0.1,0.4-0.2
		c0.4-0.1,0.4,0,0.6,0.1c0.2,0.1,0.3,0.1,0.3-0.2c0-0.3-0.1-0.5,0.2-0.5c0.3,0,0.5-0.2,0.5-0.2s0.5,0,0.4,0.2
		c-0.1,0.2-0.5,0.6-0.4,0.8c0.1,0.1,0.1,0.4,0.3,0.5c0.2,0.1,0.4,0.6,0.5,0.6c0.2,0.1,0.5,0,0.6-0.2c0.1-0.2,0.4-0.5,0.4-0.3
		s0.1,0.3,0,0.6c-0.1,0.2-0.4,0.4-0.7,0.4c-0.3,0.1-0.6,0-0.6,0.2s0.2,0.5,0.4,0.6c0.2,0.1,0.5,0,0.5,0.3c0,0.3,0.2,0.4-0.1,0.4
		c-0.3,0-0.5-0.1-0.6,0.3c-0.1,0.3,0,0.6,0,0.8c0,0.2,0.1,0.4-0.2,0.4c-0.3,0-0.2-0.2-0.5-0.1c-0.3,0.1-0.5,0-0.6,0.3
		c-0.1,0.3-0.2,0.4-0.2,0.6c0,0.2-0.2,0.4-0.2,0.6c0.1,0.2,0.1,0.3,0.3,0.4c0.2,0.1,0.5,0.4,0.7,0.3s0.3-0.3,0.5-0.4
		s0.1-0.3,0.4-0.4c0.3,0,0.5-0.2,0.4,0.1c-0.2,0.3-0.4,0.6-0.4,0.8c0,0.2-0.1,0.2-0.3,0.1c-0.2-0.1-0.1-0.3-0.4-0.1s-0.4,0.7-0.5,1
		c-0.1,0.3-0.2,0.7-0.5,0.7c-0.3,0-0.3-0.2-0.6-0.3c-0.3,0-0.5,0.1-0.5,0.3c0,0.2,0.1,0.4,0.3,0.4c0.2,0,0.2-0.1,0.4,0.1
		c0.2,0.1,0.2,0.3,0.5,0.3c0.3-0.1,0.5,0.1,0.6-0.2c0.1-0.2,0.4-0.5,0.8-0.4c0.3,0.1,0.5,0.2,0.4,0.5c-0.1,0.3-0.3,0.4-0.3,0.6
		c0,0.2,0.1,0.5-0.1,0.5c-0.2,0.1-0.4,0.1-0.4-0.2c0-0.3,0.2-0.7-0.1-0.7c-0.2-0.1-0.5-0.1-0.6,0.1c-0.1,0.2-0.1,0.8-0.4,0.9
		c-0.2,0.1-0.4,0-0.7,0c-0.2,0-0.3,0.1-0.6,0.2c-0.3,0.1-0.6,0.1-0.7,0.4c-0.1,0.3,0.5,0.7,1,0.8c0.5,0.2,0.9,0.4,0.6,0.5
		c-0.3,0.1-0.6,0.1-0.8,0.4c-0.2,0.3-0.3,0.5-0.4,0.6c-0.1,0.1-0.2-0.1-0.3-0.3s-0.1-0.6-0.4-0.7c-0.3-0.1-0.4,0-0.5,0.3
		s-0.2,0.6-0.4,0.6c-0.2,0-0.3,0-0.3-0.3c0.1-0.3,0.3-0.5,0-0.7c-0.3-0.2-0.5-0.1-0.8-0.1c-0.3,0-0.4-0.1-0.3-0.4
		c0.1-0.2,0.5-0.6,0.3-0.7c-0.2-0.1-0.5-0.2-0.8-0.1c-0.3,0.1-0.6,0.1-0.8-0.2C94.8,28.7,94.8,28.6,95,28.5z M92,32.3
		c0.7-0.2,1.3-0.6,1.5-0.9c0.2-0.3,1-0.3,1.1-0.2c0.1,0.1,0,0.5,0.1,0.8c0.1,0.3,0.2,0.4,0,0.5s-0.5,0.3-0.9,0.2
		c-0.4,0-0.5,0-0.6,0.2c-0.1,0.1-0.3,0.5-0.4,0.5c-0.1,0.1-0.5,0.2-0.6,0.3c-0.1,0.1-0.3,0.5-0.4,0.5c-0.2,0-0.5,0-0.7,0.2
		c-0.2,0.2-0.4,0.7-0.6,0.7c-0.2,0-0.6,0-0.7-0.1c-0.1-0.1-0.3-0.2-0.6-0.1c-0.3,0-0.4,0-0.7,0.2c-0.2,0.2-0.2,0.5-0.6,0.5
		c-0.4,0-0.7-0.2-0.7-0.3c0-0.1,0.1-0.4,0.2-0.4l0.7,0c0,0,0.2-0.2,0.1-0.5c-0.1-0.3-0.3-0.5-0.1-0.5c0.2,0,0.7,0.1,0.9,0
		C89.2,33.6,91.3,32.5,92,32.3z M49.4,30.2c0.3-0.9,0.6-5.4,5.8-10.9c2.8-3,6.8-5.1,10.3-5.7c3.4-0.6,6.8-0.5,8.1-0.3
		c1.3,0.2,5.9,1.3,9.1,4c3.6,3,5.5,5.3,6.7,8.5c1,2.9,1.2,4.8,1.4,4.9c0.2,0.1,0.5,0.1,0.7-0.1c0.2-0.2,0.3-0.4,0.3-0.4
		s-0.1,0.5-0.5,1c-0.4,0.5-2.7,1.5-2.7,1.5s-0.4-0.1-0.5-0.3s-0.5-0.7-0.8-0.6c-0.3,0.1-0.5,0.1-0.5,0.1s0.4-0.2,0.4-0.6
		s-0.8-4-2.2-6.2c-1.3-2.2-3.4-4.7-6.3-6.4c-2.3-1.3-4.5-2-7.3-2.2c-2.7-0.2-6,0-9.4,1.8c-4,2.1-6.1,5.2-6.5,5.8
		c-0.5,0.8-1.4,2.3-1.7,3.2c-0.3,0.8-1,3.3-1,3.6c0,0.3,0.1,0.7,0.1,0.7s-0.4,0.1-0.6,0.4c-0.2,0.2-0.3,0.8-0.7,0.7
		c-0.4-0.1-2-0.7-2.3-1.2c-0.4-0.5-0.6-0.7-0.6-1C48.7,30.5,49.1,31.1,49.4,30.2z M46.6,31.1c0.2-0.1,0.4,0.1,0.6,0.4
		c0.2,0.2,0.5,0.4,0.6,0.5c0.2,0.1,0.5,0.3,0.6,0.3s2.3,1.1,2.7,1.3c0.4,0.3,1,0.2,1,0.2l0,0.4c0,0-0.1,0.4,0.2,0.5
		c0.2,0,0.5,0.1,0.5,0.1s0.5,0.3,0.2,0.5c-0.3,0.2-0.7,0.4-0.9,0.2c-0.2-0.2-0.1-0.4-0.5-0.4c-0.4-0.1-0.4-0.2-0.8-0.2
		c-0.4,0-0.5,0.2-0.8,0.2c-0.2,0-0.3,0.2-0.5-0.1c-0.2-0.3-0.3-0.7-0.6-0.7c-0.3,0-0.4,0.1-0.6-0.1c-0.2-0.2-0.2-0.3-0.5-0.5
		s-0.5-0.4-0.8-0.7c-0.2-0.3-0.5-0.4-0.8-0.3c-0.3,0.1-0.8-0.2-0.9-0.3c0,0,0.3-0.2,0.3-0.5s-0.2-0.5,0-0.6S46.4,31.1,46.6,31.1z
		 M43.9,23.9c-0.3,0-0.5-0.2-0.6-0.4c0,0,0.6,0.1,0.7,0S44.2,23.8,43.9,23.9z M36.8,19.9c0,0-0.1,0.6-0.2,1
		c-0.1,0.4-0.3,0.4-0.3,0.1S36.6,20.1,36.8,19.9z M37.4,29.2c-0.1-0.5,0-1.1,0-1.1l0.2,0c0,0,0.1,1.5,0.2,1.7
		c0.1,0.2,0.1,0.5,0.1,0.5S37.5,29.8,37.4,29.2z M38.2,27.7c0-0.3-0.1-0.4-0.2-0.6c0-0.3,0-0.5,0-0.5l0.3,0c0,0,0.2-0.2,0.5,0
		c0.3,0.2,0.7,0.7,1,0.6c0.2-0.1,0.4-0.1,0.5-0.3c0.2-0.2,0.3-0.1,0.4-0.1c0.1,0,0.3-0.2,0.2-0.3c-0.1-0.2-0.4-0.4-0.6-0.1
		c-0.2,0.2-0.3,0.3-0.5,0.1c-0.2-0.2-0.5-1.2-0.6-1.4s-0.6-0.4-0.6-0.3c0,0.2,0.1,0.5,0,0.6c-0.1,0.2-0.1-0.1-0.3-0.6
		C38.1,24.2,38,24,37.8,24s-0.3,0.1-0.5,0.3c-0.2,0.2-1.3,0.1-1.3,0.1s-0.3-0.2-0.2-0.7c0.2-0.5,0.2-0.9,0.4-0.9
		c0.2,0,0.3,0,0.4,0.2c0.1,0.2,0.2,0.5,0.6,0.5c0.4,0.1,0.2,0.1,0.7,0.1c0.5,0,0.5,0,0.7,0.2c0.2,0.2,0.2,0.5,0.5,0.5
		c0.4,0,1,0,0.9-0.4c0-0.5-0.2-0.5-0.2-0.8c0-0.3,0-0.4-0.4-0.5c-0.3-0.1-0.3-0.2-0.6-0.2c-0.3,0.1-0.4,0.1-0.4-0.2
		c0-0.4,0.2-1.1-0.2-1.2c-0.4-0.1-0.7-0.2-0.5-0.4c0.2-0.2,0.9-0.7,0.9-0.7s0.3-0.4-0.1-0.5c-0.4-0.1-0.7,0.1-0.9-0.2
		c-0.2-0.3-0.5-0.9-0.3-0.9c0.2-0.1,0.5,0.2,0.7,0.4c0.2,0.2,0.5,0.4,0.7,0c0.2-0.4,0.3-0.4,0.4-0.5c0.2-0.1,0.2-0.3,0.1-0.6
		c-0.2-0.3-0.6-0.5-0.4-0.6c0.2-0.1,0.7-0.1,1,0.1s0.2,0.4,0.2,0.5s0.3,0.2,0.4,0.2c0.2-0.1,0.2-0.2,0.4,0c0.2,0.2,0.4,0.2,0.5,0.3
		c0.2,0.1,0.3,0,0,0.2c-0.3,0.3-0.7,0.3-0.8,0.5c-0.2,0.2-0.2,0.3,0,0.5c0.2,0.2,0.4,0.5,0.4,0.5s0.9,0.4,1.1,0.4s0.5-0.1,0.5-0.4
		c0-0.3-0.2-0.5-0.2-0.7c0-0.3-0.1-0.4-0.2-0.5c-0.1-0.2-0.1-0.3-0.1-0.3l0.3,0.1c0,0,0.2,0.2,0.4,0.4c0.3,0.2,0.5,0.4,0.6,0.5
		c0.1,0.2,0.1,0.2,0.3,0.2s0.4,0.1,0.5,0.2c0,0,0,0-0.1,0.4c0,0.4,0.2,0.7-0.1,0.7c-0.4,0-0.5-0.3-0.9-0.1c-0.3,0.2-0.6,0.4-1.2,0.5
		c-0.5,0.1-0.8,0.3-0.9,0.7c0,0.4,0.2,0.7,0.2,0.9c0,0.2-0.2,0-0.4,0.2c-0.3,0.2-0.7,0.7-0.5,1c0.2,0.3,0.4,0.7,0.7,0.9
		c0.3,0.3,0.5,0.6,0.7,0.7c0.2,0.1,0.3,0.3,0.5,0.7c0.2,0.4,0.7,0.7,0.7,0.7s-0.4,0.1-0.3,0.3c0,0.2,0.4,0.7,0.9,0.7
		c0.5,0,0.8,0.1,1,0c0.2-0.1,0.4,0,0.4,0s0.2,0.4,0.4,0.5c0.2,0.2,0,0.5-0.1,0.7s-0.2,0.2-0.6,0.1c-0.4-0.1-0.8-0.2-0.9,0
		c0,0.2,0.2,0.4,0.2,0.7s0.1,0.5-0.3,0.5c-0.4,0-0.8-0.2-0.9,0c-0.1,0.3,0.1,0.8,0.1,0.8s-0.3,0.4-0.5,0c-0.2-0.3-0.4-0.9-0.6-0.7
		c-0.2,0.2-0.5,0.5-0.5,0.7c0,0.2,0,0.5-0.3,0.3c-0.2-0.3-0.3-0.7-0.6-0.8c-0.3-0.1-0.7-0.2-0.7-0.4c0-0.2,0.2-0.2,0.5-0.3
		c0.3-0.1,0.5-0.2,0.8-0.4c0.3-0.2,0.7-0.1,0.3-0.4c-0.4-0.3-0.9-0.7-1.1-0.7c-0.2,0-0.7,0.3-0.9-0.1s-0.2-1-0.4-1.1
		s-0.5,0.1-0.5,0.3c0,0.2,0.2,0.4,0,0.6c-0.1,0.2-0.2,0.2-0.4,0.1S38.2,28.1,38.2,27.7z M39,32.1c-0.2,0.2-0.4,0.3-0.5-0.7
		c0,0,0.3,0.1,0.5,0C39.2,31.4,39.2,31.9,39,32.1z M35.6,39.4c0.4-0.4,1.2-0.9,1.5-1.1c0.4-0.2,1.2-1.2,1.4-1.8
		c0.2-0.6,0.7-1.8,1-2.1c0.3-0.3,0.8-0.5,1.5-0.5c0.7,0,1.2,0,1.5,0.5c0.2,0.5,0.5,1.1,0.5,1.1s0,0.4-0.2,0.6
		c-0.2,0.2-0.4,0.5-0.3,0.8c0,0.2,0,0.2-0.3,0.5c-0.3,0.2-0.4,0.7-0.5,1c-0.2,0.4-0.4,0.7-0.5,0.7c-0.2,0-0.5-0.2-0.9,0.3
		c-0.3,0.5-0.5,1.4-0.8,1.6c-0.2,0.2-0.2,0.4-0.1,0.5c0,0.1,0.2,0.2,0.1,0.3c-0.1,0.1-0.2,0.2,0,0.4c0.2,0.2,0.3,0.4,0.2,0.4
		c-0.1,0.1-0.1-0.1,0,0.4c0.1,0.4,0.1,0.8,0.2,0.9c0,0,0,0,0,0s0.2,0,0.2,0.2s-0.2,0.6-0.2,0.6l0,0.3l0,0.4c0,0,0,0.2,0.1,0.4
		c0.1,0.2,0.2,0.8,0.2,0.8s-0.1,0.2-0.2,0.4s-0.1,0.5-0.1,0.5l-0.9,1.4l-0.7,0c0,0-0.2,0.2-0.3,0.4c-0.1,0.2-0.2,0.5-0.5,0.6
		c-0.3,0.1-1.6,0.7-1.6,1.2c0,0.5,0,1.1,0,1.1s0.2,0.2,0.2,0.4c0,0,0,0.1,0.1,0.2c0.1,0.2,0.2,0.6,0.3,0.8c0,0.3,0.4,0.8,0.8,0.9
		c0.4,0.2,1.4,0.5,1.7,0.4c0,0-1.2,0.6-1.6,0.6c-0.4,0-0.2,0.5-0.2,0.6c0,0.1-0.6,0.5-0.8,0.1c-0.2-0.4-0.2-0.8-0.6-1.1
		c-0.4-0.3-0.5-0.5-0.4-0.9c0.1-0.3-0.1-0.9-0.2-1.4c-0.1-0.3-0.2-0.6-0.4-0.8c-0.4-0.5-0.7-1.3-0.4-1.3c0.3,0,0.6,0,0.4-0.4
		c-0.2-0.4-0.5-0.6,0.3-1c0.9-0.4,1.8-1,1.9-1.9c0.2-0.9,0.2-1.4,0-1.4c-0.2,0-0.6,0.1-0.7-0.2c-0.1-0.3,0-1-0.1-1.5
		c0-0.1-0.1-0.1-0.1-0.2h0c0,0,0,0,0,0c0,0,0,0,0,0h0c-0.1-0.3-0.3-0.6-0.4-0.7c-0.2-0.2,0-0.2,0-0.5c0-0.3-0.3-0.7-0.4-1
		C34.6,41.1,35.2,39.7,35.6,39.4z M32.8,30.9c0.1,0.4,0.1,1.4,0.1,1.8c0,0.4-0.2,1.8-0.4,2.3c-0.2,0.5-0.5,2-0.6,2.6
		c-0.1,0.6-0.2,1.7-0.2,2c0,0.3,0.3,0.9,0.3,1.1c0,0.2,0.1,0.6,0.2,0.8c0.1,0.2,0.3,0.5,0.5,0.6c0.2,0.1,0.5,0.1,0.7,0.2l0,0.1
		c0,0-0.2,0.4-0.8,0.3c-0.7-0.2-1.2-0.5-1.3-1.4c-0.1-0.9-0.1-2.1-0.1-2.7c0-0.6,0-1.9,0.1-2.4c0.1-0.5,0.5-1.7,0.6-2.5
		c0.1-0.8,0.1-1.3,0.1-1.9c-0.1-0.6,0-0.9,0.2-1C32.5,30.5,32.7,30.4,32.8,30.9z M30.5,24.7c0.7,0,0.7-0.2,1.1,0.4
		c0.4,0.6,0.7,1.1,0.7,1.4c0,0.3-0.3,0.4-0.6-0.2c-0.3-0.5-0.4-1.3-0.9-1.2c-0.5,0-0.8,0.1-0.9,0.5c0,0.4-0.2,0.3-0.2,0.4
		c0,0.1-0.1,0.1-0.2,0.1c0,0,0-0.1,0-0.2C29.5,25.9,29.8,24.7,30.5,24.7z M29.3,27.6c0.3-0.1,0.8,0,0.9,0.4c0.1,0.4,0.1,0.5-0.1,0.5
		s-0.2,0.2-0.2,0.4v1.3c0,0-0.1,0.2-0.2-0.2c-0.1-0.4-0.1-1.1-0.1-1.1s-0.2-0.5-0.5-0.5C29,28.5,29,27.7,29.3,27.6z"/>
	<path fill="#FFFFFF" d="M36.1,58.9c0,0-0.4,0.2-0.4,0.4c0,0.2,0.1,0.2,0.3,0.3c0.2,0.1,0.4-0.1,0.6-0.3
		C36.8,59.1,36.1,58.9,36.1,58.9z"/>
	<path fill="#FFFFFF" d="M32.3,63.5c0,0,0,0.4,0.3,0.4c0.2,0,1-0.3,1.3-0.4c0.3-0.1,1.4-0.3,1.8-0.5c0.3-0.2-0.2-0.3-1-0.3
		C33.8,62.7,32.3,63.5,32.3,63.5z"/>
	<path fill="#FFFFFF" d="M33.3,62.1c-0.3,0.1-0.7,0.6-0.7,0.6c0.2,0.2,0.3,0.2,0.6,0.2c0.3,0,0.7-0.2,1-0.3c0.3-0.1,0.3-0.3,0.3-0.4
		S33.6,62,33.3,62.1z"/>
	<path fill="#FFFFFF" d="M33.9,60.8c0.3-0.1,0.7-0.3,0.9-0.4c0.2-0.2-0.3-0.2-0.6-0.2s-1,0.4-1.3,0.5c-0.3,0.1-0.2,0.4,0,0.5
		c0.1,0.2-0.1,0.2-0.2,0.4c-0.1,0.2,0.2,0.3,0.4,0.3c0.2,0.1,0.6-0.2,0.8-0.3c0.2-0.1,0.5-0.4,0.5-0.4c0-0.1-0.2-0.1-0.5-0.1
		c-0.3,0-0.6,0.1-0.6,0C33.4,61,33.6,60.9,33.9,60.8z"/>
	<path fill="#FFFFFF" d="M33,60.2c0.3,0,0.4-0.1,0.7-0.2c0.3-0.1,0.6-0.2,1-0.3s0.3-0.2,0.4-0.4c0.1-0.3-0.4-0.1-0.6,0
		c-0.2,0.1-0.3,0.1-0.8,0.1c-0.4,0-1.1,0.5-1.1,0.5C32.5,60,32.8,60.2,33,60.2z"/>
	<path fill="#FFFFFF" d="M102.2,59.6C102.2,59.6,102.2,59.6,102.2,59.6c-0.1-0.1-0.3-0.3-0.3-0.3l0,0
		C101.9,59.5,102,59.5,102.2,59.6z"/>
	<path fill="#FFFFFF" d="M102.6,59.5c0-0.1,0-0.1-0.1-0.2C102.5,59.4,102.6,59.5,102.6,59.5C102.6,59.5,102.6,59.5,102.6,59.5z"/>
	<path fill="#FFFFFF" d="M102.3,59.2C102.3,59.2,102.3,59.2,102.3,59.2c0,0-0.2,0-0.3,0C102.1,59.2,102.2,59.2,102.3,59.2z"/>
	<path fill="#FFFFFF" d="M104.5,61.8c0.2,0.1,0.5,0.3,0.7,0.3c0.2,0,0.3-0.1,0.4-0.3c0-0.2-0.4-0.3-0.5-0.4
		c-0.1-0.1-0.5-0.2-0.5-0.2C103.9,61.3,104.3,61.7,104.5,61.8z"/>
	<path fill="#FFFFFF" d="M103.2,63.1c0.2,0,1.1,0.1,1.4,0.3c0.3,0.2,0.9,0.3,1.1,0.2c0.2-0.1-0.1-0.4-0.2-0.4
		c-0.1-0.1-0.2-0.1-0.1-0.2c0.1-0.1,0.2-0.2,0.2-0.4c0.1-0.2-0.5-0.4-0.6-0.4c-0.1,0-0.5,0-0.7,0.2c-0.2,0.2,0,0.2,0,0.3
		c0,0.2-0.4,0-0.9-0.1c-0.5-0.1-0.7-0.1-0.8,0.1C102.5,62.8,103,63.1,103.2,63.1z"/>
	<path fill="#FFFFFF" d="M102.2,59.6c0.1,0,0.1,0.1,0.2,0.1c0.2,0,0.2-0.1,0.2-0.2c0-0.1,0-0.1,0-0.2c0,0,0,0,0,0
		c0-0.1-0.1-0.1-0.2-0.1c-0.1,0-0.2,0-0.3,0c0,0-0.1,0-0.1,0v0c0,0,0,0,0,0C101.9,59.4,102,59.5,102.2,59.6z"/>
	<ellipse fill="#FFFFFF" cx="51.1" cy="31.6" rx="0.6" ry="0.5"/>
	<ellipse fill="#FFFFFF" cx="70" cy="14.7" rx="0.5" ry="0.5"/>
	<circle fill="#FFFFFF" cx="89" cy="31.7" r="0.5"/>
	<path fill="#FFFFFF" d="M62.4,52.4c0.7,0,1.3-0.6,1.3-1.3c0-0.7-0.6-1.3-1.3-1.3c-0.7,0-1.3,0.6-1.3,1.3
		C61.1,51.9,61.7,52.4,62.4,52.4z M62.4,50.7c0.3,0,0.5,0.2,0.5,0.5c0,0.3-0.2,0.5-0.5,0.5c-0.3,0-0.5-0.2-0.5-0.5
		C61.9,50.9,62.1,50.7,62.4,50.7z"/>
	<path fill="#FFFFFF" d="M70,54c0.7,0,1.3-0.6,1.3-1.3c0-0.7-0.6-1.3-1.3-1.3s-1.3,0.6-1.3,1.3C68.7,53.5,69.3,54,70,54z M70,52.2
		c0.3,0,0.5,0.2,0.5,0.5c0,0.3-0.2,0.5-0.5,0.5c-0.3,0-0.5-0.2-0.5-0.5C69.4,52.5,69.7,52.2,70,52.2z"/>
	<path fill="#FFFFFF" d="M62.8,27.9c-0.1-0.4-0.4-1.9-0.4-2.5c0-0.6,0.1-1.2,0.4-1.7c0.3-0.5,0.8-0.8,1.1-0.8
		c0.5-0.1,1.1,0.1,1.7,0.3c0.6,0.2,2,1.1,2,1.1s0.1-0.1,0.2-0.2c0.2-0.2,1.7-1.3,2-1.6c0.3-0.3,3.2-2,3.2-2s-1.5,0.6-2.6,0.8
		c-1.1,0.3-2.3,0.1-3-0.1c-0.8-0.2-1.9-0.9-2.4-1.2c-0.5-0.3-1.5,0-1.9,0.3c-0.6,0.4-1.3,1.1-1.7,1.9c-0.3,0.7-0.5,1.5-0.4,2.5
		C61.3,26.6,62.8,27.9,62.8,27.9z"/>
	<path fill="#FFFFFF" d="M67.6,24.7c-0.2-0.2-0.6,0.1-0.8,0.3c-0.3,0.3-0.9,1.2-1.2,1.6c-0.6,0.6-1.5,1.2-1.5,1.2
		c0.2,0.7,0.4,2.3,0.5,3.5c0.1,1.2,0.4,4.1,0.4,5.4c0,1.3-0.6,4-0.7,4.5c-0.1,0.6,0.6,0.4,1.2,0.1c0.6-0.3,1.7-1.8,1.8-2
		c0.2-0.2,0.2-0.6,0.2-0.9c0-0.3-0.2-3.5-0.2-4.3s-0.2-3.7-0.2-4.6c0-0.9,0.1-2.5,0.4-3.5C67.8,25,67.8,24.9,67.6,24.7z"/>
	<path fill="#FFFFFF" d="M61.6,46.1c0.3-0.4,0.7-1,1.3-1.4c0.6-0.3,1.6-0.6,2.7-0.6c1.1,0,2.6,0.7,3.1,0.9c0.4,0.2,2.3,1,2.5,1.1
		c0.2,0.1,0.5,0,0.7-0.1c0.2-0.1,1-0.6,1.6-1c0.6-0.4,2.4-1,3.4-1.3c1-0.3,3.8-0.6,4-0.6s0.1-0.3-0.1-0.6c-0.3-0.4-0.8-0.4-0.8-0.4
		h-0.5c0,0,0.4-0.2,1.4-1.5l0.1-0.1c0.8-1.1,1-2.3,0.9-3.6c-0.1-1.5-0.8-2.5-1.8-3.3c-0.8-0.6-1.9-1-2.2-1.1c-0.4-0.1-1-0.3-1-0.3
		l0.2-0.1c0,0,0.6-0.4,1.7-1.4c1.1-1.1,1.3-2.2,1.3-3.4c0-1.3-0.5-2.3-1.2-3c-0.8-1-2.5-1.7-3.7-2c-1.1-0.3-2.4-0.3-3.3-0.1
		c-0.9,0.2-2.4,1.4-3.1,2.2C68,25,68,25.7,68,25.7s0.3,11.3,0.3,13.1c0.1,1.8-0.4,1.5-0.6,1.6c-0.2,0.1-0.4,0.2-0.5,0.6
		c-0.1,0.4,0.5,0.3,0.9,0.1s2.6-2,2.8-2.3c0.2-0.3,0.2-0.9,0.2-0.9L71,24c0,0,0.1,0,0.3,0c0.4-0.1,2.2-0.1,3.2,0
		c1.1,0.1,2.2,0.8,2.3,1c0.1,0.1,1.2,0.8,1.2,2.7c0,1.9-1,3.3-1.9,4.3c-0.9,1.1-2.7,1.4-2.8,1.4c-0.1,0-0.5-0.7-0.5-1
		c0-0.2-0.1-0.4-0.5-0.4c-0.3,0-0.6,0.6-0.6,0.9c0,0.2-0.4,9.9-0.4,9.9c-0.2-0.2-1.4-0.5-2.8-0.7c-1.4-0.2-2.3-0.2-3.5,0
		c-1.2,0.2-2,0.8-2.7,1.4c-0.7,0.6-1.1,1.4-1.3,2c-0.2,0.5-0.1,0.8-0.1,1.1C61.1,46.6,61.4,46.4,61.6,46.1z M72.7,37.8
		c0.1-2.7,0.1-2.5,0.1-2.7c0-0.2,0.1-1.1,1-1.3c0.9-0.2,2-0.1,3,0.3c0.7,0.3,2.1,1,2.4,2.1c0.3,1,0.4,2.6-0.2,3.7L78.9,40
		c-0.8,1.3-1.3,1.8-2.5,2.1c-1.1,0.3-2.6,0.5-3.5,0.4c0,0-0.2-0.5-0.3-1.5C72.6,40.2,72.6,39.1,72.7,37.8z"/>
	<path fill="#FFFFFF" d="M65.5,67.6l0.3-2.3l-0.1,0l-1.1,0.3l0,0.1c0.1,0,0.1,0,0.2,0c0.1,0,0.1,0,0.2,0c0.1,0,0.1,0,0.1,0.1
		c0,0,0,0.1,0,0.2l-0.2,1.6c0,0.2-0.1,0.3-0.1,0.3c-0.1,0-0.2,0.1-0.4,0l0,0.1l1.5,0.2l0-0.1c-0.2,0-0.3-0.1-0.4-0.1
		C65.5,67.8,65.4,67.7,65.5,67.6z"/>
	<path fill="#FFFFFF" d="M68.4,65.4c-0.2,0-0.5,0.1-0.6,0.3c-0.2,0.2-0.3,0.4-0.3,0.7c0,0.3,0.1,0.5,0.2,0.6
		c0.1,0.2,0.3,0.2,0.5,0.2c0.1,0,0.1,0,0.2,0c0,0,0.1,0,0.1,0l0,0c-0.1,0.4-0.3,0.6-0.5,0.8c-0.2,0.1-0.3,0.2-0.6,0.2l0,0.1
		c0.5,0,0.9-0.2,1.2-0.4c0.4-0.3,0.6-0.7,0.6-1.3c0-0.4-0.1-0.6-0.3-0.9S68.6,65.4,68.4,65.4z M68.6,66.9c0,0.1,0,0.1,0,0.1
		c0,0,0,0-0.1,0c0,0-0.1,0-0.1,0c-0.1,0-0.2-0.1-0.3-0.2c-0.1-0.2-0.1-0.4-0.1-0.7c0-0.2,0-0.3,0.1-0.4c0-0.1,0.1-0.1,0.2-0.1
		c0.1,0,0.2,0,0.2,0.1c0,0.1,0,0.1,0.1,0.2c0,0.1,0,0.2,0,0.3c0,0.1,0,0.2,0,0.4C68.6,66.7,68.6,66.8,68.6,66.9z"/>
	<path fill="#FFFFFF" d="M71.9,66.4L71.9,66.4c0.1-0.1,0.2-0.2,0.2-0.3c0-0.1,0.1-0.2,0-0.3c0-0.2-0.1-0.3-0.2-0.4
		c-0.1-0.1-0.3-0.1-0.5-0.1c-0.3,0-0.5,0.1-0.6,0.3c-0.1,0.1-0.2,0.2-0.2,0.4l0.1,0c0.1-0.1,0.1-0.2,0.2-0.2
		c0.1-0.1,0.2-0.1,0.3-0.2c0.1,0,0.2,0,0.3,0.1c0.1,0.1,0.1,0.2,0.1,0.3c0,0.2,0,0.3-0.2,0.4c-0.1,0.1-0.2,0.1-0.3,0.2l0,0.1
		c0.3,0.1,0.4,0.1,0.6,0.2c0.2,0.1,0.3,0.3,0.3,0.5c0,0.1,0,0.2-0.1,0.3s-0.2,0.2-0.3,0.2c-0.1,0-0.2-0.1-0.3-0.2
		c-0.1-0.1-0.3-0.2-0.4-0.2c-0.1,0-0.2,0-0.2,0.1c0,0.1-0.1,0.1,0,0.2c0,0.1,0.1,0.2,0.2,0.2c0.1,0.1,0.3,0.1,0.4,0.1
		c0.4,0,0.7-0.2,0.9-0.4c0.2-0.2,0.3-0.5,0.3-0.8c0-0.1-0.1-0.3-0.1-0.4C72.2,66.6,72.1,66.5,71.9,66.4z"/>
	<path fill="#FFFFFF" d="M75.2,65.3c-0.2-0.2-0.5-0.3-0.7-0.2c-0.2,0-0.4,0.2-0.6,0.3c-0.1,0.2-0.2,0.4-0.2,0.7
		c0,0.3,0.1,0.4,0.3,0.6c0.2,0.1,0.4,0.2,0.6,0.1c0.1,0,0.1,0,0.2-0.1c0,0,0.1,0,0.1-0.1l0,0c0,0.4-0.2,0.7-0.4,0.9
		c-0.1,0.1-0.3,0.2-0.5,0.3l0,0.1c0.5-0.1,0.8-0.3,1.1-0.6c0.4-0.4,0.5-0.8,0.4-1.3C75.5,65.7,75.4,65.5,75.2,65.3z M74.9,66.6
		C74.9,66.6,74.9,66.6,74.9,66.6c-0.1,0.1-0.1,0.1-0.2,0.1c-0.1,0-0.2,0-0.3-0.2c-0.1-0.1-0.1-0.4-0.2-0.7c0-0.2,0-0.3,0-0.4
		c0-0.1,0.1-0.2,0.2-0.2c0.1,0,0.2,0,0.2,0.1c0,0,0.1,0.1,0.1,0.2c0,0.1,0,0.2,0.1,0.3c0,0.1,0,0.2,0.1,0.4c0,0.1,0,0.2,0,0.3
		C75,66.5,75,66.6,74.9,66.6z"/>
</g>
</svg>
